<?xml version="1.0" encoding="utf-8"?>
<!-- Generator: Adobe Illustrator 19.2.0, SVG Export Plug-In . SVG Version: 6.00 Build 0)  -->
<svg version="1.1" id="Layer_1" xmlns="http://www.w3.org/2000/svg" xmlns:xlink="http://www.w3.org/1999/xlink" x="0px" y="0px"
	 viewBox="0 0 1060 449" style="enable-background:new 0 0 1060 449;" xml:space="preserve">
<style type="text/css">
	.st0{fill:#2A0058;}
	.st1{fill:#471A6B;}
	.st2{fill:none;}
</style>
<rect class="st0" width="1060" height="449"/>
<g>
	<g>
		<g>
			<g>
				
					<ellipse transform="matrix(0.1457 -0.9893 0.9893 0.1457 -357.0819 537.1088)" class="st1" cx="132.4" cy="475.3" rx="27.4" ry="27.4"/>
				<g>
					<path class="st1" d="M256.6,601.2c-26.5,5.7-42.9,4.6-54-0.5c3.5-4.1,7-8.5,10.3-13.4c0,0-65.4-22.1-34.4-56.1
						c26.1-20.9,45.4-51.7,46.6-53.6c1.4-2.2,0.9-5-1-6.7c-1.9-1.7-4.8-1.8-6.8-0.2c-24.5,19.3-48.5,32.3-71.4,38.7
						c-18.1,5-35.5,5.9-51.7,2.7c-27.6-5.5-42.7-21.4-43-21.7c-1.9-2-4.9-2.3-7.1-0.6c-2.2,1.7-2.7,4.7-1.2,7
						c10.6,16.6,29.8,32.1,49.8,42.1c11,7.4,28.2,24.2,8.3,48c-0.8,0.9-1.5,1.9-2.3,3c-13.7,13.3-24.5,31.2-31.8,52.9
						c-8.8,26.3-9.5,48.8-9.5,49.8c-0.1,2.6,1.7,4.8,4.2,5.3c0.4,0.1,0.7,0.1,1.1,0.1c2.1,0,4.1-1.2,4.9-3.3
						c9.5-23.9,19.7-41.8,31.6-54.6c18.6,2.6,46.8,2.2,74.6-14.8c8.4,2.8,17.3,4.2,26.5,4.2c9.2,0,18.7-1.4,28.3-4.2
						c18.8-5.5,31.5-14.3,32.1-14.6c2.1-1.4,2.8-4.1,1.8-6.5C261.5,601.9,259,600.6,256.6,601.2z"/>
					<g>
						
							<ellipse transform="matrix(0.1457 -0.9893 0.9893 0.1457 -151.8618 625.7505)" class="st1" cx="286.4" cy="400.8" rx="22.2" ry="22.2"/>
						<path class="st1" d="M402,500c-1-2.4-3.5-3.8-6-3.2c-23.1,5-40.2,2.3-50.8-8.1c-9.1-8.9-13.2-24.1-11.7-41.8
							c8.5-1,30.4-4.9,49.5,7c2.3,1.4,5,1.9,7,0.2c2-1.7,2.5-4.7,1-7c-0.7-1-11.5-19.5-46.1-25.4c-33.8-5.8-72.3,7.5-114.5,39.3
							c-2.1,1.6-2.7,4.5-1.4,6.9c1,1.7,2.7,2.7,4.6,2.7c0.7,0,1.4-0.1,2-0.4c0.3-0.1,17.7-7.3,40.8-13.5c0.3,1.7,0.7,3.6,1.2,5.6
							c1.4,5.9,3.9,15.8,8,25c-13.2,10.6-21.1,23-25.8,33.2c-8.1,17.5-8.7,32.4-8.7,33c-0.1,2.5,1.6,4.7,4,5.3
							c0.4,0.1,0.8,0.2,1.3,0.2c2,0,3.9-1.1,4.8-3c12.8-26.7,30.2-36.9,49.5-42.5c11.4,4.8,23.6,7.3,36.3,7.3
							c7.3,0,14.7-0.8,22.2-2.4c18.2-4,30.3-11.3,30.8-11.6C402,505.1,402.9,502.4,402,500z"/>
					</g>
				</g>
			</g>
		</g>
		<g>
			<g>
				
					<ellipse transform="matrix(0.1457 -0.9893 0.9893 0.1457 -23.1935 854.9937)" class="st1" cx="483.4" cy="440.9" rx="27.4" ry="27.4"/>
				<g>
					<path class="st1" d="M607.6,566.8c-26.5,5.7-42.9,4.6-54-0.5c3.5-4.1,7-8.5,10.3-13.4c0,0-65.4-22.1-34.4-56.1
						c26.1-20.9,45.4-51.7,46.6-53.6c1.4-2.2,0.9-5-1-6.7c-1.9-1.7-4.8-1.8-6.8-0.2c-24.5,19.3-48.5,32.3-71.4,38.7
						c-18.1,5-35.5,5.9-51.7,2.7c-27.6-5.5-42.7-21.4-43-21.7c-1.9-2-4.9-2.3-7.1-0.6c-2.2,1.7-2.7,4.7-1.2,7
						c10.6,16.6,29.8,32.1,49.8,42.1c11,7.4,28.2,24.2,8.3,48c-0.8,0.9-1.5,1.9-2.3,3c-13.7,13.3-24.5,31.2-31.8,52.9
						c-8.8,26.3-9.5,48.8-9.5,49.8c-0.1,2.6,1.7,4.8,4.2,5.3c0.4,0.1,0.7,0.1,1.1,0.1c2.1,0,4.1-1.2,4.9-3.3
						c9.5-23.9,19.7-41.8,31.6-54.6c18.6,2.6,46.8,2.2,74.6-14.8c8.4,2.8,17.3,4.2,26.5,4.2c9.2,0,18.7-1.4,28.3-4.2
						c18.8-5.5,31.5-14.3,32.1-14.6c2.1-1.4,2.8-4.1,1.8-6.5C612.5,567.5,610,566.2,607.6,566.8z"/>
					<g>
						
							<ellipse transform="matrix(0.1457 -0.9893 0.9893 0.1457 182.0273 943.6355)" class="st1" cx="637.4" cy="366.4" rx="22.2" ry="22.2"/>
						<path class="st1" d="M753,465.6c-1-2.4-3.5-3.8-6-3.2c-23.1,5-40.2,2.3-50.8-8.1c-9.1-8.9-13.2-24.1-11.7-41.8
							c8.5-1,30.4-4.9,49.5,7c2.3,1.4,5,1.9,7,0.2c2-1.7,2.5-4.7,1-7c-0.7-1-11.5-19.5-46.1-25.4c-33.8-5.8-72.3,7.5-114.5,39.3
							c-2.1,1.6-2.7,4.5-1.4,6.9c1,1.7,2.7,2.7,4.6,2.7c0.7,0,1.4-0.1,2-0.4c0.3-0.1,17.7-7.3,40.8-13.5c0.3,1.7,0.7,3.6,1.2,5.6
							c1.4,5.9,3.9,15.8,8,25c-13.2,10.6-21.1,23-25.8,33.2c-8.1,17.5-8.7,32.4-8.7,33c-0.1,2.5,1.6,4.7,4,5.3
							c0.4,0.1,0.8,0.2,1.3,0.2c2,0,3.9-1.1,4.8-3c12.8-26.7,30.2-36.9,49.5-42.5c11.4,4.8,23.6,7.3,36.3,7.3
							c7.3,0,14.7-0.8,22.2-2.4c18.2-4,30.3-11.3,30.8-11.6C753,470.7,753.9,468,753,465.6z"/>
					</g>
				</g>
			</g>
		</g>
		<g>
			<g>
				
					<ellipse transform="matrix(0.1457 -0.9893 0.9893 0.1457 309.4652 1172.2134)" class="st1" cx="833.4" cy="406.9" rx="27.4" ry="27.4"/>
				<g>
					<path class="st1" d="M957.6,532.8c-26.5,5.7-42.9,4.6-54-0.5c3.5-4.1,7-8.5,10.3-13.4c0,0-65.4-22.1-34.4-56.1
						c26.1-20.9,45.4-51.7,46.6-53.6c1.4-2.2,0.9-5-1-6.7c-1.9-1.7-4.8-1.8-6.8-0.2c-24.5,19.3-48.5,32.3-71.4,38.7
						c-18.1,5-35.5,5.9-51.7,2.7c-27.6-5.5-42.7-21.4-43-21.7c-1.9-2-4.9-2.3-7.1-0.6c-2.2,1.7-2.7,4.7-1.2,7
						c10.6,16.6,29.8,32.1,49.8,42.1c11,7.4,28.2,24.2,8.3,48c-0.8,0.9-1.5,1.9-2.3,3c-13.7,13.3-24.5,31.2-31.8,52.9
						c-8.8,26.3-9.5,48.8-9.5,49.8c-0.1,2.6,1.7,4.8,4.2,5.3c0.4,0.1,0.7,0.1,1.1,0.1c2.1,0,4.1-1.2,4.9-3.3
						c9.5-23.9,19.7-41.8,31.6-54.6c18.6,2.6,46.8,2.2,74.6-14.8c8.4,2.8,17.3,4.2,26.5,4.2c9.2,0,18.7-1.4,28.3-4.2
						c18.8-5.5,31.5-14.3,32.1-14.6c2.1-1.4,2.8-4.1,1.8-6.5C962.5,533.5,960,532.2,957.6,532.8z"/>
					<g>
						
							<ellipse transform="matrix(0.1457 -0.9893 0.9893 0.1457 514.6868 1260.8552)" class="st1" cx="987.4" cy="332.4" rx="22.2" ry="22.2"/>
						<path class="st1" d="M1103,431.6c-1-2.4-3.5-3.8-6-3.2c-23.1,5-40.2,2.3-50.8-8.1c-9.1-8.9-13.2-24.1-11.7-41.8
							c8.5-1,30.4-4.9,49.5,7c2.3,1.4,5,1.9,7,0.2c2-1.7,2.5-4.7,1-7c-0.7-1-11.5-19.5-46.1-25.4c-33.8-5.8-72.3,7.5-114.5,39.3
							c-2.1,1.6-2.7,4.5-1.4,6.9c1,1.7,2.7,2.7,4.6,2.7c0.7,0,1.4-0.1,2-0.4c0.3-0.1,17.7-7.3,40.8-13.5c0.3,1.7,0.7,3.6,1.2,5.6
							c1.4,5.9,3.9,15.8,8,25c-13.2,10.6-21.1,23-25.8,33.2c-8.1,17.5-8.7,32.4-8.7,33c-0.1,2.5,1.6,4.7,4,5.3
							c0.4,0.1,0.8,0.2,1.3,0.2c2,0,3.9-1.1,4.8-3c12.8-26.7,30.2-36.9,49.5-42.5c11.4,4.8,23.6,7.3,36.3,7.3
							c7.3,0,14.7-0.8,22.2-2.4c18.2-4,30.3-11.3,30.8-11.6C1103,436.7,1103.9,434,1103,431.6z"/>
					</g>
				</g>
			</g>
		</g>
	</g>
	<g>
		<g>
			<g>
				
					<ellipse transform="matrix(0.1457 -0.9893 0.9893 0.1457 -135.4697 326.7362)" class="st1" cx="121.4" cy="241.8" rx="27.4" ry="27.4"/>
				<g>
					<path class="st1" d="M245.6,367.7c-26.5,5.7-42.9,4.6-54-0.5c3.5-4.1,7-8.5,10.3-13.4c0,0-65.4-22.1-34.4-56.1
						c26.1-20.9,45.4-51.7,46.6-53.6c1.4-2.2,0.9-5-1-6.7c-1.9-1.7-4.8-1.8-6.8-0.2c-24.5,19.3-48.5,32.3-71.4,38.7
						c-18.1,5-35.5,5.9-51.7,2.7c-27.6-5.5-42.7-21.4-43-21.7c-1.9-2-4.9-2.3-7.1-0.6c-2.2,1.7-2.7,4.7-1.2,7
						c10.6,16.6,29.8,32.1,49.8,42.1c11,7.4,28.2,24.2,8.3,48c-0.8,0.9-1.5,1.9-2.3,3c-13.7,13.3-24.5,31.2-31.8,52.9
						c-8.8,26.3-9.5,48.8-9.5,49.8c-0.1,2.6,1.7,4.8,4.2,5.3c0.4,0.1,0.7,0.1,1.1,0.1c2.1,0,4.1-1.2,4.9-3.3
						c9.5-23.9,19.7-41.8,31.6-54.6c18.6,2.6,46.8,2.2,74.6-14.8c8.4,2.8,17.3,4.2,26.5,4.2c9.2,0,18.7-1.4,28.3-4.2
						c18.8-5.5,31.5-14.3,32.1-14.6c2.1-1.4,2.8-4.1,1.8-6.5C250.5,368.4,248,367.1,245.6,367.7z"/>
					<g>
						
							<ellipse transform="matrix(0.1457 -0.9893 0.9893 0.1457 69.7504 415.3774)" class="st1" cx="275.4" cy="167.3" rx="22.2" ry="22.2"/>
						<path class="st1" d="M391,266.5c-1-2.4-3.5-3.8-6-3.2c-23.1,5-40.2,2.3-50.8-8.1c-9.1-8.9-13.2-24.1-11.7-41.8
							c8.5-1,30.4-4.9,49.5,7c2.3,1.4,5,1.9,7,0.2c2-1.7,2.5-4.7,1-7c-0.7-1-11.5-19.5-46.1-25.4c-33.8-5.8-72.3,7.5-114.5,39.3
							c-2.1,1.6-2.7,4.5-1.4,6.9c1,1.7,2.7,2.7,4.6,2.7c0.7,0,1.4-0.1,2-0.4c0.3-0.1,17.7-7.3,40.8-13.5c0.3,1.7,0.7,3.6,1.2,5.6
							c1.4,5.9,3.9,15.8,8,25c-13.2,10.6-21.1,23-25.8,33.2c-8.1,17.5-8.7,32.4-8.7,33c-0.1,2.5,1.6,4.7,4,5.3
							c0.4,0.1,0.8,0.2,1.3,0.2c2,0,3.9-1.1,4.8-3c12.8-26.7,30.2-36.9,49.5-42.5c11.4,4.8,23.6,7.3,36.3,7.3
							c7.3,0,14.7-0.8,22.2-2.4c18.2-4,30.3-11.3,30.8-11.6C391,271.6,391.9,268.9,391,266.5z"/>
					</g>
				</g>
			</g>
		</g>
		<g>
			<g>
				
					<ellipse transform="matrix(0.1457 -0.9893 0.9893 0.1457 198.4186 644.6212)" class="st1" cx="472.4" cy="207.4" rx="27.4" ry="27.4"/>
				<g>
					<path class="st1" d="M596.6,333.3c-26.5,5.7-42.9,4.6-54-0.5c3.5-4.1,7-8.5,10.3-13.4c0,0-65.4-22.1-34.4-56.1
						c26.1-20.9,45.4-51.7,46.6-53.6c1.4-2.2,0.9-5-1-6.7c-1.9-1.7-4.8-1.8-6.8-0.2c-24.5,19.3-48.5,32.3-71.4,38.7
						c-18.1,5-35.5,5.9-51.7,2.7c-27.6-5.5-42.7-21.4-43-21.7c-1.9-2-4.9-2.3-7.1-0.6c-2.2,1.7-2.7,4.7-1.2,7
						c10.6,16.6,29.8,32.1,49.8,42.1c11,7.4,28.2,24.2,8.3,48c-0.8,0.9-1.5,1.9-2.3,3c-13.7,13.3-24.5,31.2-31.8,52.9
						c-8.8,26.3-9.5,48.8-9.5,49.8c-0.1,2.6,1.7,4.8,4.2,5.3c0.4,0.1,0.7,0.1,1.1,0.1c2.1,0,4.1-1.2,4.9-3.3
						c9.5-23.9,19.7-41.8,31.6-54.6c18.6,2.6,46.8,2.2,74.6-14.8c8.4,2.8,17.3,4.2,26.5,4.2c9.2,0,18.7-1.4,28.3-4.2
						c18.8-5.5,31.5-14.3,32.1-14.6c2.1-1.4,2.8-4.1,1.8-6.5C601.5,334,599,332.7,596.6,333.3z"/>
					<g>
						
							<ellipse transform="matrix(0.1457 -0.9893 0.9893 0.1457 403.6395 733.2625)" class="st1" cx="626.4" cy="132.9" rx="22.2" ry="22.2"/>
						<path class="st1" d="M742,232.1c-1-2.4-3.5-3.8-6-3.2c-23.1,5-40.2,2.3-50.8-8.1c-9.1-8.9-13.2-24.1-11.7-41.8
							c8.5-1,30.4-4.9,49.5,7c2.3,1.4,5,1.9,7,0.2c2-1.7,2.5-4.7,1-7c-0.7-1-11.5-19.5-46.1-25.4c-33.8-5.8-72.3,7.5-114.5,39.3
							c-2.1,1.6-2.7,4.5-1.4,6.9c1,1.7,2.7,2.7,4.6,2.7c0.7,0,1.4-0.1,2-0.4c0.3-0.1,17.7-7.3,40.8-13.5c0.3,1.7,0.7,3.6,1.2,5.6
							c1.4,5.9,3.9,15.8,8,25c-13.2,10.6-21.1,23-25.8,33.2c-8.1,17.5-8.7,32.4-8.7,33c-0.1,2.5,1.6,4.7,4,5.3
							c0.4,0.1,0.8,0.2,1.3,0.2c2,0,3.9-1.1,4.8-3c12.8-26.7,30.2-36.9,49.5-42.5c11.4,4.8,23.6,7.3,36.3,7.3
							c7.3,0,14.7-0.8,22.2-2.4c18.2-4,30.3-11.3,30.8-11.6C742,237.2,742.9,234.5,742,232.1z"/>
					</g>
				</g>
			</g>
		</g>
		<g>
			<g>
				
					<ellipse transform="matrix(0.1457 -0.9893 0.9893 0.1457 531.0773 961.8409)" class="st1" cx="822.4" cy="173.4" rx="27.4" ry="27.4"/>
				<g>
					<path class="st1" d="M946.6,299.3c-26.5,5.7-42.9,4.6-54-0.5c3.5-4.1,7-8.5,10.3-13.4c0,0-65.4-22.1-34.4-56.1
						c26.1-20.9,45.4-51.7,46.6-53.6c1.4-2.2,0.9-5-1-6.7c-1.9-1.7-4.8-1.8-6.8-0.2c-24.5,19.3-48.5,32.3-71.4,38.7
						c-18.1,5-35.5,5.9-51.7,2.7c-27.6-5.5-42.7-21.4-43-21.7c-1.9-2-4.9-2.3-7.1-0.6c-2.2,1.7-2.7,4.7-1.2,7
						c10.6,16.6,29.8,32.1,49.8,42.1c11,7.4,28.2,24.2,8.3,48c-0.8,0.9-1.5,1.9-2.3,3c-13.7,13.3-24.5,31.2-31.8,52.9
						c-8.8,26.3-9.5,48.8-9.5,49.8c-0.1,2.6,1.7,4.8,4.2,5.3c0.4,0.1,0.7,0.1,1.1,0.1c2.1,0,4.1-1.2,4.9-3.3
						c9.5-23.9,19.7-41.8,31.6-54.6c18.6,2.6,46.8,2.2,74.6-14.8c8.4,2.8,17.3,4.2,26.5,4.2c9.2,0,18.7-1.4,28.3-4.2
						c18.8-5.5,31.5-14.3,32.1-14.6c2.1-1.4,2.8-4.1,1.8-6.5C951.5,300,949,298.7,946.6,299.3z"/>
					<g>
						
							<ellipse transform="matrix(0.1457 -0.9893 0.9893 0.1457 736.299 1050.4822)" class="st1" cx="976.4" cy="98.9" rx="22.2" ry="22.2"/>
						<path class="st1" d="M1092,198.1c-1-2.4-3.5-3.8-6-3.2c-23.1,5-40.2,2.3-50.8-8.1c-9.1-8.9-13.2-24.1-11.7-41.8
							c8.5-1,30.4-4.9,49.5,7c2.3,1.4,5,1.9,7,0.2c2-1.7,2.5-4.7,1-7c-0.7-1-11.5-19.5-46.1-25.4c-33.8-5.8-72.3,7.5-114.5,39.3
							c-2.1,1.6-2.7,4.5-1.4,6.9c1,1.7,2.7,2.7,4.6,2.7c0.7,0,1.4-0.1,2-0.4c0.3-0.1,17.7-7.3,40.8-13.5c0.3,1.7,0.7,3.6,1.2,5.6
							c1.4,5.9,3.9,15.8,8,25c-13.2,10.6-21.1,23-25.8,33.2c-8.1,17.5-8.7,32.4-8.7,33c-0.1,2.5,1.6,4.7,4,5.3
							c0.4,0.1,0.8,0.2,1.3,0.2c2,0,3.9-1.1,4.8-3c12.8-26.7,30.2-36.9,49.5-42.5c11.4,4.8,23.6,7.3,36.3,7.3
							c7.3,0,14.7-0.8,22.2-2.4c18.2-4,30.3-11.3,30.8-11.6C1092,203.2,1092.9,200.5,1092,198.1z"/>
					</g>
				</g>
			</g>
		</g>
	</g>
</g>
<rect x="50" y="100" class="st2" width="960" height="249"/>
</svg>
