<?xml version="1.0" encoding="iso-8859-1"?>
<!-- Generator: Adobe Illustrator 19.2.0, SVG Export Plug-In . SVG Version: 6.00 Build 0)  -->
<svg version="1.1" xmlns="http://www.w3.org/2000/svg" xmlns:xlink="http://www.w3.org/1999/xlink" x="0px" y="0px"
	 viewBox="0 0 34 34" style="enable-background:new 0 0 34 34;" xml:space="preserve">
<g id="Layer_1">
</g>
<g id="Layer_2">
	<g>
		<g>
			<rect style="fill:none;" width="34" height="34"/>
			<path style="fill:#2A0058;" d="M8.089,10.601c0-0.832,0.704-1.536,1.536-1.536h14.751c0.864,0,1.536,0.704,1.536,1.536
				c0,0.864-0.672,1.536-1.536,1.536H9.625C8.793,12.137,8.089,11.464,8.089,10.601z M25.911,17.032
				c0,0.832-0.672,1.536-1.536,1.536H9.625c-0.832,0-1.536-0.704-1.536-1.536c0-0.864,0.704-1.536,1.536-1.536h14.751
				C25.24,15.496,25.911,16.168,25.911,17.032z M25.911,23.399c0,0.864-0.672,1.536-1.536,1.536H9.625
				c-0.832,0-1.536-0.672-1.536-1.536c0-0.832,0.704-1.536,1.536-1.536h14.751C25.24,21.864,25.911,22.568,25.911,23.399z"/>
		</g>
	</g>
	<g>
	</g>
	<g>
	</g>
	<g>
	</g>
	<g>
	</g>
	<g>
	</g>
	<g>
	</g>
	<g>
	</g>
	<g>
	</g>
	<g>
	</g>
	<g>
	</g>
	<g>
	</g>
	<g>
	</g>
	<g>
	</g>
	<g>
	</g>
	<g>
	</g>
</g>
</svg>
