<?xml version="1.0" encoding="iso-8859-1"?>
<!-- Generator: Adobe Illustrator 19.2.0, SVG Export Plug-In . SVG Version: 6.00 Build 0)  -->
<svg version="1.1" xmlns="http://www.w3.org/2000/svg" xmlns:xlink="http://www.w3.org/1999/xlink" x="0px" y="0px"
	 viewBox="0 0 34 34" style="enable-background:new 0 0 34 34;" xml:space="preserve">
<g id="Layer_1">
</g>
<g id="Layer_2">
	<g>
		<g>
			<rect style="fill:none;" width="34" height="34"/>
			<path style="fill:#FFFFFF;" d="M27.399,18.604c0,5.728-4.671,10.399-10.399,10.399c-5.76,0-10.399-4.672-10.399-10.399
				c0-5.76,4.64-10.399,10.399-10.399C22.728,8.204,27.399,12.844,27.399,18.604z M7.273,9.26c-0.224-0.992,0.48-1.856,2.656-3.136
				c2.208-1.248,3.424-1.408,4.128-0.736l1.216,1.696c-2.88,0.512-5.344,1.952-7.231,4.096L7.273,9.26z M25.095,18.604
				c0-4.479-3.616-8.095-8.095-8.095c-4.48,0-8.096,3.616-8.096,8.095S12.52,26.699,17,26.699
				C21.48,26.699,25.095,23.083,25.095,18.604z M13.992,19.947l1.919-1.664l-0.032-5.056c0.16-1.408,2.432-1.248,2.368-0.064v5.12
				c0,1.056-0.128,1.152-0.512,1.472l-2.272,2.016C14.344,22.635,12.84,20.971,13.992,19.947z M26.695,9.292
				c0.192-0.992-0.448-1.824-2.688-3.136c-2.24-1.28-3.424-1.408-4.096-0.736l-1.248,1.696c2.912,0.512,5.344,1.952,7.264,4.096
				L26.695,9.292z"/>
		</g>
	</g>
	<g>
	</g>
	<g>
	</g>
	<g>
	</g>
	<g>
	</g>
	<g>
	</g>
	<g>
	</g>
	<g>
	</g>
	<g>
	</g>
	<g>
	</g>
	<g>
	</g>
	<g>
	</g>
	<g>
	</g>
	<g>
	</g>
	<g>
	</g>
	<g>
	</g>
</g>
</svg>
