<?xml version="1.0" encoding="iso-8859-1"?>
<!-- Generator: Adobe Illustrator 19.2.0, SVG Export Plug-In . SVG Version: 6.00 Build 0)  -->
<svg version="1.1" xmlns="http://www.w3.org/2000/svg" xmlns:xlink="http://www.w3.org/1999/xlink" x="0px" y="0px"
	 viewBox="0 0 34 34" style="enable-background:new 0 0 34 34;" xml:space="preserve">
<g id="Layer_1">
</g>
<g id="Layer_2">
	<g>
		<g>
			<rect style="fill:none;" width="34" height="34"/>
			<path style="fill:#2A0058;" d="M19.736,7.273l5.248,5.375v14.079H9.017V7.273H19.736z M11.32,24.424H22.68c0,0,0-9.375,0-10.144
				c0-0.768-0.352-0.864-0.992-0.864c-0.64,0-2.176,0-2.176,0s0-1.888,0-2.368c0-0.768-0.736-1.472-1.792-1.472
				c-1.152,0-6.4,0-6.4,0V24.424z M18.328,17.928V15.24h-2.72v2.656h-2.944l4.352,5.056l4.32-5.023H18.328z"/>
		</g>
	</g>
	<g>
	</g>
	<g>
	</g>
	<g>
	</g>
	<g>
	</g>
	<g>
	</g>
	<g>
	</g>
	<g>
	</g>
	<g>
	</g>
	<g>
	</g>
	<g>
	</g>
	<g>
	</g>
	<g>
	</g>
	<g>
	</g>
	<g>
	</g>
	<g>
	</g>
</g>
</svg>
