<?xml version="1.0" encoding="iso-8859-1"?>
<!-- Generator: Adobe Illustrator 19.2.1, SVG Export Plug-In . SVG Version: 6.00 Build 0)  -->
<svg version="1.1" xmlns="http://www.w3.org/2000/svg" xmlns:xlink="http://www.w3.org/1999/xlink" x="0px" y="0px"
	 viewBox="0 0 34 34" style="enable-background:new 0 0 34 34;" xml:space="preserve">
<g id="Layer_1">
</g>
<g id="Layer_2">
	<g>
		<g>
			<rect style="fill:none;" width="34" height="34"/>
			<g id="call-redirect_2_">
				<path style="fill:#FFFFFF;" d="M29,24.347c0.55,0.394,0.685,1.184,0.206,1.664l-3.485,3.485c0,0-6.032,0.529-13.888-7.325
					C3.978,14.315,4.507,8.283,4.507,8.283l3.484-3.485c0.48-0.479,1.25-0.363,1.645,0.187l2.98,4.152
					c0.395,0.55,0.287,1.356-0.193,1.835l-2.539,2.541c1.265,1.765,2.817,3.673,4.875,5.732c2.059,2.058,3.966,3.61,5.732,4.875
					l2.539-2.539c0.48-0.479,1.324-0.55,1.874-0.155L29,24.347z"/>
			</g>
		</g>
	</g>
	<g>
	</g>
	<g>
	</g>
	<g>
	</g>
	<g>
	</g>
	<g>
	</g>
	<g>
	</g>
	<g>
	</g>
	<g>
	</g>
	<g>
	</g>
	<g>
	</g>
	<g>
	</g>
	<g>
	</g>
	<g>
	</g>
	<g>
	</g>
	<g>
	</g>
</g>
</svg>
