<svg id="Layer_1" data-name="Layer 1" xmlns="http://www.w3.org/2000/svg" viewBox="0 0 34 34"><defs><style>.cls-1{fill:#2a0058;}</style></defs><title>icon-pinterest-color</title><path class="cls-1" d="M24.68,7.29H23.23l-.15,0H10.92l-.15,0H9.29a1.77,1.77,0,0,0-2,2V24.69a1.79,1.79,0,0,0,2,2l3.95,0a10.07,10.07,0,0,1,.09-3.22s.19-.79,1.24-5.24a4.15,4.15,0,0,1-.3-1.53c0-1.42.82-2.48,1.85-2.48a1.29,1.29,0,0,1,1.29,1.44,20.38,20.38,0,0,1-.85,3.41A1.5,1.5,0,0,0,18.08,21c1.82,0,3.05-2.34,3.05-5.12,0-2.12-1.42-3.69-4-3.69a4.55,4.55,0,0,0-4.74,4.6,2.85,2.85,0,0,0,.63,1.9.46.46,0,0,1,.14.53c-.05.18-.15.61-.19.77a.33.33,0,0,1-.48.24,3.72,3.72,0,0,1-2-3.67c0-2.74,2.3-6,6.88-6,3.67,0,6.09,2.66,6.09,5.51,0,3.77-2.1,6.6-5.19,6.6a2.76,2.76,0,0,1-2.36-1.2c-.56,2.22-.67,2.65-.67,2.65a8.81,8.81,0,0,1-1.37,2.66l10.78,0c1.44,0,2-.67,2-2V9.3C26.73,7.9,26.12,7.29,24.68,7.29Z"/></svg>