<?xml version="1.0" encoding="utf-8"?>
<svg version="1.1" xmlns="http://www.w3.org/2000/svg" xmlns:xlink="http://www.w3.org/1999/xlink" x="0px" y="0px"
     viewBox="0 0 737.2 420" xml:space="preserve">
    <g id="neighborhoods">
        <path id="north-cambridge" data-term="North Cambridge" class="st0" d="M99.7,128.5c1,0.2,2.4,0.3,4.3,0.3c15.1,0,56.8-6.5,79-10.4c1.4-0.3,2.3-0.4,2.5-0.4
            l0.3,0c9.3-1.4,91.2-13.4,105.9-13.4h0.1c0.6,0,1.1,0.1,1.7,0.2l1,0.3l3.3-3.2l0,0l23.5,5.4l0.9-1.7l4.7-8.6l-51.6-33.5l-7.6,10.9
            L142.7,7.7c0,0,5,38.1-15.8,44.1c-16.4,4.7-13.6,21.8-13.6,21.8L5.9,71.4l13,56l0.4,1.8c8.6-2.9,20.6-4.3,35.8-4.3
            C76.4,124.9,95.7,127.7,99.7,128.5z"/>
        <path id="cambridge-highlands" data-term="Cambridge Highlands" class="st0" d="M60,209.8l43.2,8l29.3-16l21.8-29.9l-0.2-1.1c-3.4-15.6-1.8-28.3,4.9-37.5
            c4.9-6.8,11.9-10.6,16.8-12.5c2.4-1,4.6-1.6,6.3-2c-22.5,3.9-63.2,10.2-78.1,10.2c-1.9,0-3.3-0.1-4.3-0.3c-4-0.8-23.3-3.6-44.5-3.6
            c-15.2,0-27.2,1.5-35.8,4.3l0.5,2l0,0.1l-8.1,16.5c23,29.8,28.8,54.1,30.2,62.6c0.1,0.8,0.2,1.5,0.3,2L60,209.8L60,209.8z"/>
        <path id="wellington-harrington" data-term="Wellington Harrington" class="st0" d="M576.1,240.4l-9.6-92.1c-0.7-0.2-1.4-0.4-2.1-0.6c-30.9-7.4-84.6,34-84.6,34
            c-2.9,1.9-5.9,3.2-8.9,4l-3,0.5l98,52L576.1,240.4z"/>
        <path id="agassiz" data-term="Agassiz" class="st0" d="M294.6,105.1l2,1.3c8.1,6.4,13,28.6,18.3,52l0,0c2.4,10.5,4.8,21.4,7.6,31.5
            c3.2,11.5,8.8,19,16.5,22.4c3,1.3,6.4,2,10,2c5.4,0,10.1-1.5,12.4-2.4l1.7-0.7l-2.9-7.5l0,0l46.5-33.6c-0.4-0.5-0.8-1-1.2-1.4
            c-10-12.2-14.3-11.5-14.3-11.5l11.2-18.2l-42.1-13.3l-3.2,5.5l-36.3-21.8l-0.4-0.2l0.9-1.8l-23.4-5.3L294.6,105.1z"/>
        <path id="mid-cambridge" data-term="Mid Cambridge" class="st0" d="M363.1,211.3l-1.8,0.7c-2.3,0.9-7,2.4-12.4,2.4c-1,0-2-0.1-3-0.2l1.5,22.5l26.3,0.3l0,0
            c0.2,0.2,23.5,16.1,33,16.1c0.1,0,0.3,0,0.4,0c0.5,0,1,0,1.5,0c9.4,0,23.5,3.5,24,3.6l47.7,13.9l8.7-73l-18.6-9.9l-2.7-1.5
            l-3.3,0.6c-24.1,1.9-49.2-19.9-49.2-19.9l-7.2,4.9c0,0-0.1-0.1-0.1-0.1c-0.4-0.6-0.8-1.1-1.3-1.6l-46.4,33.6L363.1,211.3z"/>
        <path id="strawberry-hill" data-term="Strawberry Hill" class="st0" d="M133.1,288.6l11.3-52.5l-22.1,6.1l0,0l-19-24.3l-43.2-8l-17.8,2.8
            c0.1,0.7,0.1,1.1,0.1,1.1l-1.2,0.9l-14.9,11.7l83.5,87.9l23.1-10.6l1.8-0.8l-10.2-11L133.1,288.6z"/>
        <path id="neighborhood-nine" data-term="Neighborhood Nine" class="st0" d="M338.9,212.4c-7.7-3.4-13.3-10.9-16.5-22.5c-2.8-10-5.3-20.9-7.6-31.5l0,0
            c-5.2-23.4-10.2-45.5-18.2-51.9l-2-1.3l-1-0.3c-0.6-0.1-1.1-0.2-1.7-0.2h-0.1c-14.7,0-96.6,12-105.9,13.4l-0.3,0c0,0,0,0,0,0v0
            c0,0-4.3,0.5-9.7,2.6c-4.9,1.9-11.8,5.7-16.8,12.5c-6.7,9.2-8.3,21.8-4.9,37.5l0.2,1.1l104.5,25.3l87.8,29.8l-0.8-12.6
            C343.4,214,341.1,213.3,338.9,212.4z"/>
        <path id="area-four" data-term="Area Four" class="st0" d="M576.2,240.5L576.2,240.5l-10.3-2.1l-76.7-40.7l-8.7,72.9l75.8,22l0,0.1
            c0.3-0.3,0.5-0.6,0.6-0.8l0.1-0.1c24.3-25.8,23.7-41,21.1-47.8l-1.3-3.4L576.2,240.5z"/>
        <path id="riverside" data-term="Riverside" class="st0" d="M432.7,256.8c-0.6-0.1-14.6-3.6-24-3.6c-0.5,0-1,0-1.5,0c-0.1,0-0.2,0-0.4,0
            c-9.6,0-32.8-15.9-33.1-16.1l0,0l-26.3-0.3l0.5,8.3l0,0l-7.7,38.6c0.6,0,1.2-0.2,2-0.4c1.3-0.4,2.8-1,4.7-2
            c3.1-1.7,17.9-10.2,21.2-9.1c2.5,0.8,13.4,4.9,14.8,7.2c15.6,24.6,22.8,29.4,30.1,54c0.2,0.7,0.4,1.5,0.6,2.2l66.7-64.9
            L432.7,256.8z"/>
        <path id="east-cambridge" data-term="East Cambridge" class="st0" d="M695.7,128.7l-29.6,6.5l-7.9-3.9l-13.6,6.3l-47-6.6l-11,18.7l-14.4-6.8l-3.5,6.1l-0.1,0.1
            c-0.6-0.3-1.2-0.5-1.9-0.7l9.6,92.1l50.2,10.5l35-10.5c0.2-0.6,0.3-1.3,0.4-2.1c0.5-3.3,0.5-7.3,2.3-8.9c2-1.7,13.1-58.8,15.8-62
            c0.1-0.2,0.3-0.3,0.5-0.4l3.7,4.4l1.8-4.2l6.2,1.8l1.6,4.3l4.5,1.5l3.2-12.1l-1.7-0.5c0.7-1.5,1.5-3,2.4-4.5
            c0.9-1.3,10.8-11.3,20.7-19.6l0,0L695.7,128.7z"/>
        <path id="area-2" data-term="Area 2" class="st0" d="M626.4,251.1L626.4,251.1L577,240.7l1.3,3.4c2.5,6.8,3.2,22-21.2,47.9L557,292
            c-3.8,4.6-55.2,72.7-69.6,104.6c0.7-0.1,1.4-0.2,2.2-0.3c0,0,0.1,0,0.1,0c7.8-1.1,23.6-11.8,31.1-14.5c10.1-3.7,39-42.2,48.6-46.5
            c6.1-2.7,10.3-8.2,14.7-13.2l31.9,35.4c2.2-1.8,4.5-3.7,6.9-5.6l-32.7-36.3c20.9-21.4,55.5-49.9,69.8-72.5c0.3-0.5,0.6-0.9,0.9-1.4
            c0.2-0.3,0.3-0.7,0.5-1.1L626.4,251.1z"/>
        <path id="cambridgeport" data-term="Cambridgeport" class="st0" d="M480.5,270.7L480.5,270.7L480.5,270.7l-66.8,65c0.2,0.7,0.4,1.3,0.6,2
            c0.2,0.7,0.4,1.4,0.6,2.1c2.2,8.3,11.6,36.6,16.9,43.3c8.6,11.1,13,18.6,27,17.4c7.9-0.7,12.3-1.3,17.2-2.1l3.5,10.9
            c1.4-0.3,2.8-0.6,4.2-1l-3.4-10.6c1.4-0.2,3-0.5,4.7-0.7c0.8-0.1,1.5-0.2,2.4-0.4c13.8-30.7,62-95,69-103.9L480.5,270.7z"/>
        <path id="west-cambridge" data-term="West Cambridge" class="st0" d="M347.3,236.9L347.3,236.9L347.3,236.9l-0.6-9.9l-87.9-29.8l-104.5-25.3l-21.8,29.9
            l-29.3,16l18.9,24.3l22.2-6.1l0,0.1l-11.3,52.6l0,0l-8.4,3.2l10.1,10.9l2-0.9l45-20.6l2.8,12.9l24.4-3.5c5.2,9.3,9.5,36,9.6,53.1
            c0.1,17.1-12.4,23.5-12.4,23.5l5.1,6.9c0,0,0,0,0,0c4.4-2.4,11.1-2.1,17.3-2.4c0,0,0,0,0,0c0.3,0,0.6,0,0.9,0c0.1,0,0.1,0,0.2,0
            c0.3,0,0.5,0,0.8,0c0.1,0,0.2,0,0.3,0c0.2,0,0.5,0,0.7,0c0.1,0,0.2,0,0.3,0c0.2,0,0.4,0,0.6-0.1c0.1,0,0.2,0,0.4,0
            c0.2,0,0.4,0,0.6-0.1c0.1,0,0.2,0,0.4,0c0.2,0,0.4-0.1,0.6-0.1c0.1,0,0.3,0,0.4-0.1c0.2,0,0.4-0.1,0.5-0.1c0.1,0,0.3,0,0.4-0.1
            c0.2,0,0.3-0.1,0.5-0.1c0.1,0,0.3-0.1,0.4-0.1c0.2,0,0.3-0.1,0.5-0.1c0.1,0,0.2-0.1,0.4-0.1c0.2,0,0.3-0.1,0.5-0.1
            c0.1,0,0.2-0.1,0.3-0.1c0.2-0.1,0.3-0.1,0.5-0.2c0.1,0,0.2-0.1,0.3-0.1c0.2-0.1,0.3-0.1,0.5-0.2c0.1,0,0.2-0.1,0.3-0.1
            c0.2-0.1,0.5-0.2,0.7-0.4c7.8-4.5,6.4-12.4,10.4-21.8c5.5-13,23.3-34.6,19.8-42.4c-1.9-4.3-5.5-8.4-8.8-12.5l5.8-6.4
            c-0.3-0.4-0.5-0.9-0.7-1.3c-0.5-1-0.8-2.1-1-3.2l-6.8,7.5c-1.3-1.8-2.5-3.6-3.4-5.5c-3.9-8.4,7.1-22.8,15.8-25.7
            c8.8-2.9,20.6-6.2,27.7-0.3c7.1,5.9,18.1,9,22.9,16.9c9.4,2.6,11.5,7.9,15.7,8.9c0.6,0.2,1.3,0.2,2.1,0.2l7.7-38.6L347.3,236.9z"/>
        <path class="st0" d="M338.3,283.6l-1.8,9.7c1.5,0,3-0.1,4.4-0.3l1.3-9.9L338.3,283.6z"/>
    </g>
    <g id="water">
        <path class="st1" d="M63.4,219.3c-2.9-2.5-5-6-5.7-9.8c-0.2-1.3-0.3-2.6,0.2-3.8c0.4-0.8,1-1.5,1.6-2.2c3.1-3.1,6.8-5.6,10.8-7.4
            c3-1.4,6.5-2.6,8-5.5c0.7-1.5,0.8-3.3,1.8-4.7c1.3-1.9,7.6-4.1,9.8-3.8c2.3,0.3,4.4,1.4,6.4,2.5c4.9,2.6,9.8,5.3,14.7,7.9
            c2,1.1,4.2,2.2,6.4,2c2.3-0.2,4.2-1.7,6-3.2c6.3-5.1,10.7-9.6,17-14.7c0.9-0.7,1.8-1.4,2.9-1.5c1.8-0.2,3.3,1.3,4.3,2.8
            c3.3,5,4.3,11.2,4.8,17.1c0.1,1.5,0.2,3.2-0.4,4.6c-1.7,4.1-7.6,5.3-9.6,9.3c-0.9,1.7-1.1,4.3-3,4.7c-0.6,0.1-1.2,0-1.8-0.1
            c-2.5-0.4-7.3-0.7-9.8-0.4c-0.9,0.1-1.8,0.3-2.6,0.8c-1.8,1.2-1.8,3.8-1.6,5.9c0.5,5.2,1.4,8.6,5.2,12.1c2.9,2.6,7,3.4,9.9,6
            c0.6,0.5,1.1,1.1,1.3,1.9c0.5,1.9-13,13.3-17.9,16.5c-0.4,0.3-0.8,0.5-1.2,0.6c-1.3,0.3-2.4-1-3.1-2.1c-1.6-2.5-2.9-5.3-4.6-7.7
            c-1.8-2.4-4.2-4.5-7.2-5c-4.6-0.8-8.8,2.4-13.3,3.5c-4.4,1.1-9.2,0-12.8-2.8c-3.5-2.8-5.7-7.3-5.7-11.8c0-1.3-1-5.5-2.7-6.7
            C69.7,223.2,63.4,219.3,63.4,219.3z"/>
        <path class="st1" d="M61.9,226.6c-1.3,0.1-2-1.3-2.5-2.5c-0.5-1.2-1.1-2.5-2.4-2.7c-0.4,0-0.8,0.1-1.2,0.2
            c-1.1,0.5-2.1,1.6-1.8,2.8c0.3,1.5,2.3,2,3.5,2.9c1.7,1.2,2.2,3.4,2.8,5.4c0.6,2,1.8,4.1,3.9,4.4c1.6,0.2,3.2-0.8,3.9-2.3
            c0.7-1.5,1-2.6-0.5-5.6C66.1,226.2,61.9,226.6,61.9,226.6z"/>
        <path class="st1" d="M59.7,181.5c0.3,1.6-1.9,3.3-4.7,3.7c-2.9,0.4-5.4-0.5-5.6-2.1c-0.3-1.6,1.5-4.2,4.4-4.7
            C56.6,178,59.4,179.9,59.7,181.5z"/>
        <path class="st1" d="M85.1,172.6c1,2.5-0.5,5.4-3.3,6.5c-2.8,1.1-5.8-0.1-6.8-2.6c-1-2.5-1-3.7,1.8-4.8
            C79.6,170.6,84.1,170.1,85.1,172.6z"/>
        <path class="st2" d="M256.6,285.1c0.1,0.1,0.1,0.2,0.2,0.3C256.7,285.3,256.6,285.2,256.6,285.1z"/>
        <path class="st2" d="M231.8,371.7c-0.1,0-0.1,0-0.2,0C231.6,371.7,231.7,371.7,231.8,371.7z"/>
        <path class="st2" d="M255.5,276.6c-0.2,0.6-0.3,1.3-0.3,1.9C255.2,277.9,255.3,277.3,255.5,276.6z"/>
        <path class="st2" d="M229.7,371.8C229.6,371.8,229.6,371.8,229.7,371.8C229.6,371.8,229.6,371.8,229.7,371.8z"/>
        <path class="st2" d="M233.7,371.5c-0.1,0-0.1,0-0.2,0C233.6,371.5,233.7,371.5,233.7,371.5z"/>
        <path class="st2" d="M257.4,286.5c0,0.1,0.1,0.1,0.1,0.2C257.5,286.6,257.4,286.6,257.4,286.5z"/>
        <path class="st2" d="M235.6,371.2c0,0-0.1,0-0.1,0C235.5,371.2,235.6,371.2,235.6,371.2z"/>
        <path class="st2" d="M256,274.7c-0.2,0.7-0.4,1.3-0.6,1.9C255.6,276,255.8,275.3,256,274.7z"/>
        <path class="st2" d="M261.1,266.1c-0.5,0.6-0.9,1.2-1.4,1.8C260.1,267.3,260.6,266.7,261.1,266.1z"/>
        <path class="st2" d="M225.3,371.9c-0.6,0-1.2,0-1.7,0C224.2,372,224.8,371.9,225.3,371.9z"/>
        <path class="st2" d="M227.6,371.9c-0.1,0-0.1,0-0.2,0C227.5,371.9,227.6,371.9,227.6,371.9z"/>
        <path class="st2" d="M257.3,271.7c-0.5,1-0.9,2-1.3,2.9C256.4,273.7,256.8,272.7,257.3,271.7z"/>
        <path class="st2" d="M265.2,296.8c0.1,0.1,0.2,0.3,0.3,0.4C265.4,297,265.3,296.9,265.2,296.8z"/>
        <path class="st2" d="M251,347.7c-0.5,1.2-0.9,2.3-1.3,3.5C250.1,350,250.5,348.8,251,347.7z"/>
        <path class="st2" d="M249.2,352.8c-0.3,1.1-0.6,2.2-0.8,3.2C248.6,355,248.9,353.9,249.2,352.8z"/>
        <path class="st2" d="M267.2,299.3c0.2,0.3,0.4,0.6,0.6,0.8C267.6,299.9,267.4,299.6,267.2,299.3z"/>
        <path class="st2" d="M269.2,302.3c0.2,0.3,0.4,0.7,0.6,1C269.6,302.9,269.4,302.6,269.2,302.3z"/>
        <path class="st2" d="M268.2,300.8c0.2,0.3,0.4,0.6,0.6,0.9C268.6,301.4,268.4,301.1,268.2,300.8z"/>
        <path class="st2" d="M237.4,370.8c0,0-0.1,0-0.1,0C237.4,370.8,237.4,370.8,237.4,370.8z"/>
        <path class="st2" d="M258.3,287.9C258.3,287.9,258.3,287.9,258.3,287.9C258.3,287.9,258.3,287.9,258.3,287.9z"/>
        <path class="st2" d="M223.1,372c-0.6,0-1.2,0-1.7,0.1C222,372,222.6,372,223.1,372z"/>
        <path class="st2" d="M270,303.8c0.3,0.5,0.5,1,0.7,1.5C270.5,304.8,270.3,304.3,270,303.8z"/>
        <path class="st2" d="M239.1,370.2C239.1,370.2,239,370.2,239.1,370.2C239,370.2,239.1,370.2,239.1,370.2z"/>
        <path class="st2" d="M266.1,297.9c0.2,0.3,0.4,0.5,0.6,0.8C266.5,298.4,266.3,298.1,266.1,297.9z"/>
        <path class="st2" d="M248.4,356c-0.3,1-0.5,2-0.8,3C247.9,358.1,248.1,357.1,248.4,356z"/>
        <path class="st2" d="M325.7,275.8c-0.1-0.1-0.3-0.1-0.4-0.2C325.4,275.7,325.6,275.8,325.7,275.8z"/>
        <path class="st2" d="M324.3,275.3c-0.1-0.1-0.3-0.1-0.4-0.1C324,275.2,324.2,275.3,324.3,275.3z"/>
        <path class="st2" d="M270.9,258.4c0.3-0.1,0.6-0.2,0.8-0.3c2-0.7,4.3-1.4,6.5-2c-2.3,0.6-4.5,1.3-6.5,2
            C271.4,258.2,271.2,258.3,270.9,258.4z"/>
        <path class="st2" d="M255.1,280.4c0-0.6,0-1.2,0.1-1.8C255.1,279.2,255,279.8,255.1,280.4z"/>
        <path class="st2" d="M327.1,276.5c-0.1,0-0.1-0.1-0.2-0.1C327,276.4,327,276.4,327.1,276.5z"/>
        <path class="st2" d="M261.8,265.3c1.5-1.7,3.2-3.2,4.8-4.5C265,262,263.3,263.6,261.8,265.3z"/>
        <path class="st2" d="M331.6,279.3c-0.2-0.1-0.4-0.3-0.6-0.4C331.3,279,331.5,279.2,331.6,279.3z"/>
        <path class="st2" d="M330.8,278.7c-0.2-0.2-0.4-0.3-0.7-0.5C330.3,278.4,330.6,278.5,330.8,278.7z"/>
        <path class="st2" d="M329.5,277.8c-0.1-0.1-0.3-0.2-0.4-0.2C329.2,277.6,329.3,277.7,329.5,277.8z"/>
        <path class="st2" d="M328.4,277.2c-0.1-0.1-0.3-0.2-0.4-0.2C328.2,277,328.3,277.1,328.4,277.2z"/>
        <path class="st2" d="M255.9,283.9C255.9,283.8,255.9,283.8,255.9,283.9c-0.5-1.1-0.8-2.3-0.9-3.5
            C255.1,281.6,255.4,282.7,255.9,283.9C255.9,283.8,255.9,283.8,255.9,283.9z"/>
        <path class="st2" d="M217.1,372.5c-0.5,0.1-1,0.2-1.5,0.3C216.1,372.6,216.6,372.5,217.1,372.5z"/>
        <path class="st2" d="M269.2,259.2c-0.8,0.5-1.7,1-2.5,1.6C267.5,260.2,268.4,259.6,269.2,259.2z"/>
        <path class="st2" d="M305.9,262.1c-0.7-0.4-1.4-0.8-2.2-1.3C304.5,261.3,305.2,261.7,305.9,262.1z"/>
        <path class="st2" d="M221,372.1c-0.6,0-1.2,0.1-1.7,0.1C219.9,372.2,220.4,372.1,221,372.1z"/>
        <path class="st2" d="M284,254.9c-1.6,0.2-3.3,0.6-4.9,1C280.7,255.5,282.4,255.1,284,254.9z"/>
        <path class="st2" d="M219,372.2c-0.5,0-1,0.1-1.6,0.2C218,372.3,218.5,372.3,219,372.2z"/>
        <path class="st2" d="M321.4,273.3c-0.7-0.9-1.5-1.8-2.3-2.6C319.9,271.5,320.7,272.3,321.4,273.3z"/>
        <path class="st2" d="M315.9,268.1c-0.8-0.6-1.7-1.2-2.6-1.7C314.2,267,315.1,267.5,315.9,268.1z"/>
        <path class="st2" d="M213.4,373.3c-0.5,0.2-0.9,0.3-1.4,0.5C212.5,373.6,212.9,373.5,213.4,373.3z"/>
        <path class="st2" d="M215.2,372.8c-0.5,0.1-1,0.2-1.4,0.4C214.2,373,214.7,372.9,215.2,372.8z"/>
        <path class="st2" d="M415.6,342.7c-0.3-1.1-0.6-2-0.8-2.8c-0.2-0.7-0.4-1.4-0.6-2.1c0,0,0,0,0,0c0.2,0.7,0.4,1.4,0.6,2.1
            C415,340.6,415.3,341.6,415.6,342.7z"/>
        <path class="st2" d="M433.3,385.2c0.8,1,1.5,2,2.2,2.9C434.8,387.2,434.1,386.2,433.3,385.2z"/>
        <path class="st2" d="M484.9,397c-0.6,0.1-1.1,0.2-1.6,0.2c0.6-0.1,1.2-0.2,1.8-0.3C485.1,397,485,397,484.9,397z"/>
        <path class="st2" d="M458.7,400.5C458.7,400.5,458.7,400.5,458.7,400.5C458.7,400.5,458.7,400.5,458.7,400.5
            c-1.7,0.2-3.3,0.2-4.8,0.1C455.3,400.7,456.9,400.7,458.7,400.5z"/>
        <path class="st2" d="M480.2,397.8L480.2,397.8c0.4-0.1,0.7-0.1,1.1-0.2C481,397.7,480.6,397.7,480.2,397.8z"/>
        <path class="st2" d="M590.2,315.6L590.2,315.6C590.2,315.6,590.2,315.5,590.2,315.6C590.2,315.5,590.2,315.6,590.2,315.6z"/>
        <path class="st2" d="M657.5,246.8c-12.6,17.8-36.1,38.7-55,56.7C621.4,285.5,644.9,264.6,657.5,246.8z"/>
        <path class="st2" d="M489.6,396.4C489.6,396.4,489.6,396.4,489.6,396.4c0,0,0.1,0,0.1,0C489.7,396.3,489.6,396.3,489.6,396.4z"/>
        <path class="st2" d="M522.6,380.9c-0.7,0.4-1.3,0.7-1.8,0.9c-0.9,0.3-2,0.8-3.1,1.4c1.2-0.6,2.2-1,3.1-1.4
            C521.3,381.6,521.9,381.3,522.6,380.9z"/>
        <path class="st1" d="M723,138.1L723,138.1L723,138.1c-1.2,1-2.5,2.1-3.7,3.2c0,0,0,0,0,0c-3.6,3.2-7.1,6.4-10,9.2
            c0,0-0.1,0-0.1,0.1c-1.4,1.3-2.6,2.6-3.6,3.6c-0.1,0.1-0.1,0.1-0.2,0.2c-0.3,0.3-0.5,0.5-0.8,0.8c-0.1,0.1-0.1,0.1-0.2,0.2
            c-0.3,0.3-0.5,0.6-0.8,0.8c0,0,0,0,0,0c-0.2,0.2-0.4,0.4-0.6,0.6c-0.1,0.1-0.1,0.1-0.1,0.2c-0.1,0.1-0.2,0.2-0.3,0.4
            c0,0-0.1,0.1-0.1,0.1c-0.1,0.1-0.2,0.2-0.2,0.3c-0.4,0.6-0.8,1.3-1.2,2c-0.1,0.2-0.2,0.3-0.3,0.5c-0.4,0.7-0.7,1.3-1,2l1.7,0.5
            l-3.2,12.1l-4.5-1.5l-1.6-4.3l-6.2-1.8l-1.8,4.2l-3.7-4.4c0,0,0,0,0,0c-0.2,0.1-0.4,0.3-0.5,0.4c-0.4,0.5-0.9,2-1.6,4.3
            c-0.3,1-0.6,2.2-1,3.5c-0.3,1-0.5,2-0.8,3.1c-0.2,0.7-0.4,1.5-0.6,2.3c-0.1,0.4-0.2,0.8-0.3,1.2c-0.2,0.8-0.4,1.6-0.6,2.5
            c-1.4,5.9-2.9,12.6-4.4,19c-0.2,0.9-0.4,1.8-0.6,2.7c-0.1,0.5-0.2,0.9-0.3,1.4c-0.2,0.9-0.4,1.8-0.6,2.7c-0.7,3-1.4,5.9-2,8.5
            c-0.2,0.7-0.3,1.4-0.5,2.1c-0.2,0.7-0.3,1.3-0.5,1.9c-0.2,0.6-0.3,1.2-0.5,1.7c-0.2,0.8-0.4,1.6-0.6,2.2c-0.1,0.4-0.2,0.8-0.4,1.2
            c-0.3,1-0.6,1.7-0.8,1.9c-0.1,0.1-0.3,0.3-0.4,0.4c0,0-0.1,0.1-0.1,0.1c-0.1,0.1-0.2,0.3-0.3,0.4c0,0,0,0.1-0.1,0.1
            c-0.1,0.2-0.2,0.4-0.3,0.6c0,0,0,0.1,0,0.1c-0.1,0.2-0.1,0.4-0.2,0.6c0,0,0,0.1,0,0.1c-0.1,0.5-0.2,1-0.3,1.6c0,0,0,0,0,0
            c-0.3,1.5-0.4,3.3-0.6,4.8c0,0,0,0,0,0c0,0,0,0,0,0c-0.1,0.8-0.3,1.5-0.5,2.2h0c0,0,0,0,0,0c-0.1,0.2-0.1,0.4-0.2,0.6
            c-0.1,0.2-0.2,0.4-0.3,0.6c-0.3,0.5-0.6,0.9-0.9,1.4l0,0c-0.7,1.1-1.4,2.1-2.2,3.2c-0.1,0.2-0.2,0.4-0.4,0.5
            c-12.6,17.8-36.1,38.7-55,56.7c-0.1,0.1-0.1,0.1-0.2,0.2c-0.7,0.7-1.4,1.4-2.2,2.1c-0.2,0.2-0.4,0.4-0.6,0.6
            c-0.6,0.6-1.2,1.1-1.8,1.7c-0.2,0.2-0.5,0.5-0.7,0.7c-0.5,0.5-1,1-1.6,1.5c-0.3,0.3-0.5,0.5-0.8,0.8c-0.5,0.5-1,1-1.5,1.5
            c-0.3,0.3-0.5,0.5-0.8,0.8c-0.6,0.6-1.1,1.1-1.6,1.7c-0.2,0.2-0.3,0.4-0.5,0.5c0,0,0,0,0,0l32.7,36.3c0,0,0,0,0,0
            c24.6-19.5,58.5-42.1,69.8-60.9c1.7-2.8,3.5-5.7,6-7.9c2-1.7,4.5-2.9,6.2-5c1.8-2.3,2.3-5.3,2.7-8.1c0.9-6,1.7-12.5-1.4-17.7
            c-1.1-1.8-9.5-31.1-10.6-42.2c-0.4-4.2-4.8-11.6-2-14.9c3.2-3.7,9.2-4.3,11.8-8.5c0.3-2.1-1.2-4.2-3.2-4.7c0.5-4.6,2.2-9,4.7-12.8
            c1.1-1.8,18.5-19.1,30.4-27V128C733.3,130,728.2,133.8,723,138.1z"/>
        <path class="st1" d="M265.2,296.8c0.1,0.1,0.2,0.3,0.3,0.4c0.2,0.2,0.4,0.5,0.5,0.7c0.2,0.3,0.4,0.5,0.6,0.8
            c0.2,0.2,0.3,0.4,0.5,0.7c0.2,0.3,0.4,0.6,0.6,0.8c0.1,0.2,0.3,0.4,0.4,0.6c0.2,0.3,0.4,0.6,0.6,0.9c0.1,0.2,0.3,0.4,0.4,0.6
            c0.2,0.3,0.4,0.7,0.6,1c0.1,0.2,0.2,0.3,0.3,0.5c0.3,0.5,0.5,1,0.7,1.5c1.5,3.4-1,9.5-4.8,16.3c-0.8,1.5-1.7,3-2.6,4.5
            c-0.6,1-1.2,2-1.8,3s-1.2,2-1.9,3.1c-0.9,1.5-1.9,3-2.8,4.5c-0.6,1-1.2,2-1.7,2.9c-0.3,0.5-0.6,1-0.8,1.4
            c-0.8,1.4-1.5,2.8-2.2,4.1c-0.4,0.9-0.8,1.7-1.2,2.5c-0.5,1.2-0.9,2.3-1.3,3.5c-0.2,0.6-0.3,1.1-0.5,1.7c-0.3,1.1-0.6,2.2-0.8,3.2
            s-0.5,2-0.8,3c-1.2,4.4-2.6,8-7,10.5c-0.2,0.1-0.5,0.3-0.7,0.4c-0.1,0-0.2,0.1-0.3,0.1c-0.2,0.1-0.3,0.2-0.5,0.2c0,0,0,0,0,0
            c0,0,0,0-0.1,0c-0.1,0-0.2,0.1-0.2,0.1c-0.2,0.1-0.3,0.1-0.5,0.2c-0.1,0-0.2,0.1-0.3,0.1c-0.2,0.1-0.3,0.1-0.5,0.1c0,0,0,0,0,0
            c0,0-0.1,0-0.1,0c-0.1,0-0.2,0-0.2,0.1c-0.2,0-0.3,0.1-0.5,0.1c-0.1,0-0.3,0.1-0.4,0.1c-0.2,0-0.3,0.1-0.5,0.1c0,0,0,0,0,0
            c0,0-0.1,0-0.1,0c-0.1,0-0.1,0-0.2,0c-0.2,0-0.4,0.1-0.5,0.1c-0.1,0-0.3,0-0.4,0.1c-0.2,0-0.4,0.1-0.6,0.1c0,0,0,0,0,0
            c-0.1,0-0.1,0-0.2,0c-0.1,0-0.1,0-0.2,0c-0.2,0-0.4,0-0.6,0.1c-0.1,0-0.2,0-0.4,0c-0.2,0-0.4,0-0.6,0.1c0,0,0,0-0.1,0
            c-0.1,0-0.1,0-0.2,0c0,0-0.1,0-0.1,0c-0.2,0-0.5,0-0.7,0c-0.1,0-0.2,0-0.3,0c-0.3,0-0.5,0-0.8,0c0,0,0,0,0,0c0,0-0.1,0-0.1,0
            c0,0,0,0-0.1,0c-0.3,0-0.6,0-0.9,0c0,0,0,0,0,0c-0.3,0-0.6,0-0.9,0c-0.1,0-0.1,0-0.2,0c-0.7,0-1.4,0-2.1,0.1c-0.6,0-1.2,0-1.7,0
            c-0.2,0-0.3,0-0.5,0c-0.6,0-1.2,0-1.7,0.1c-0.1,0-0.3,0-0.4,0c-0.6,0-1.2,0.1-1.7,0.1c-0.1,0-0.2,0-0.3,0c-0.5,0-1,0.1-1.6,0.2
            c-0.1,0-0.2,0-0.3,0c-0.5,0.1-1,0.2-1.5,0.3c-0.1,0-0.3,0.1-0.4,0.1c-0.5,0.1-1,0.2-1.4,0.4c-0.1,0-0.2,0.1-0.4,0.1
            c-0.5,0.2-0.9,0.3-1.4,0.5c-0.1,0-0.2,0.1-0.3,0.1c-0.5,0.2-0.9,0.4-1.3,0.7c-9.7,6.3-9.7,30.7-14.2,41.4
            c-0.6,1.4-1.5,2.7-2.7,3.9h9c2.1-2.3,3.9-4.9,5.1-7.8c4.5-10.7,1.7-25.5,11.4-31.8c7.4-4.8,17.4,0.1,25.1-4.3
            c5.1-2.9,8.9-11.4,11.3-16.8c5.5-13,12.5-18.6,18-31.5c8.6-0.6,12.8-17.1,9.3-25c-3-6.8-11.2-10.2-15-16.5l-5.8,6.4
            C263,294.1,264.1,295.4,265.2,296.8z"/>
        <path class="st1" d="M416.3,345c0.3,0.8,0.5,1.7,0.8,2.7C416.9,346.8,416.6,345.9,416.3,345z"/>
        <path class="st1" d="M441.1,394.6c0.7,0.7,1.4,1.3,2.1,1.9C442.5,395.9,441.8,395.3,441.1,394.6z"/>
        <path class="st1" d="M331.7,279.4C331.7,279.4,331.7,279.3,331.7,279.4c-0.3-0.2-0.4-0.3-0.6-0.5c-0.1-0.1-0.2-0.1-0.3-0.2
            c-0.2-0.2-0.4-0.3-0.7-0.5c-0.2-0.1-0.4-0.3-0.7-0.4c-0.1-0.1-0.3-0.2-0.4-0.2c-0.2-0.1-0.4-0.3-0.6-0.4c-0.1-0.1-0.3-0.2-0.4-0.2
            c-0.3-0.2-0.6-0.3-0.9-0.5c-0.1,0-0.1-0.1-0.2-0.1c-0.4-0.2-0.8-0.4-1.2-0.5c-0.1-0.1-0.3-0.1-0.4-0.2c-0.3-0.1-0.7-0.3-1-0.4
            c-0.1-0.1-0.3-0.1-0.4-0.1c-0.5-0.2-1-0.3-1.5-0.5c-0.3-0.5-0.6-1-1-1.4c-0.7-0.9-1.5-1.8-2.3-2.6c-1-0.9-2-1.8-3.2-2.6
            c-0.8-0.6-1.7-1.2-2.6-1.7c-0.5-0.3-1-0.6-1.6-1c-1.1-0.6-2.1-1.2-3.2-1.8c-0.9-0.5-1.8-1-2.6-1.5c-0.7-0.4-1.4-0.8-2.2-1.3
            c-1.5-1-3-2-4.4-3.1c-3.1-2.6-7.1-3.4-11.4-3.3c-1.3,0-2.7,0.2-4,0.4c-1.6,0.2-3.3,0.6-4.9,1c-0.3,0.1-0.6,0.1-0.8,0.2
            c-2.3,0.6-4.5,1.3-6.5,2c-0.3,0.1-0.6,0.2-0.8,0.3c-0.6,0.2-1.1,0.5-1.7,0.8c-0.8,0.5-1.7,1-2.5,1.6c-1.7,1.2-3.3,2.8-4.8,4.5
            c-0.3,0.3-0.5,0.6-0.7,0.9c-0.5,0.6-0.9,1.2-1.4,1.8c-0.9,1.2-1.7,2.5-2.4,3.8c-0.5,1-0.9,2-1.3,2.9c-0.2,0.7-0.4,1.3-0.6,1.9
            c-0.2,0.6-0.3,1.3-0.3,1.9s-0.1,1.2-0.1,1.8c0.1,1.2,0.3,2.3,0.8,3.4c0,0,0,0.1,0,0.1c0.2,0.4,0.4,0.9,0.7,1.3
            c0.1,0.1,0.1,0.2,0.2,0.3c0.2,0.4,0.4,0.7,0.6,1.1c0,0.1,0.1,0.1,0.1,0.2c0.3,0.4,0.5,0.8,0.8,1.2c0,0,0,0,0,0.1
            c0.3,0.4,0.6,0.9,0.9,1.3l6.8-7.5c0,0,0,0,0,0c-1.3-7.7,4.3-16.2,12-18.8c8.8-2.9,18.7,0.5,25.8,6.4s12.1,14,16.8,21.9
            c5.2,1.4,10.5,2.1,15.8,2l1.7-9.6C335.9,283.1,334.3,281.4,331.7,279.4z"/>
        <path class="st1" d="M479.4,409.4l-3.5-10.9c0,0,0,0,0,0c-0.5,0.1-1,0.2-1.5,0.2c-0.2,0-0.3,0.1-0.5,0.1c-0.2,0-0.4,0.1-0.7,0.1
            c-0.3,0.1-0.7,0.1-1,0.2c-0.2,0-0.4,0.1-0.6,0.1c-0.3,0-0.6,0.1-0.9,0.1c-0.2,0-0.4,0-0.6,0.1c-0.4,0-0.7,0.1-1.1,0.1
            c-0.2,0-0.3,0-0.5,0.1c-0.4,0.1-0.9,0.1-1.4,0.2c-0.1,0-0.3,0-0.4,0.1c-0.5,0.1-1,0.1-1.5,0.2c-0.1,0-0.2,0-0.2,0
            c-0.5,0.1-1.1,0.1-1.6,0.2c-0.1,0-0.3,0-0.4,0c-0.6,0.1-1.2,0.1-1.8,0.2c-0.1,0-0.3,0-0.4,0c-0.7,0.1-1.3,0.1-2.1,0.2
            c0,0,0,0-0.1,0c-1.7,0.2-3.3,0.2-4.8,0.1s-2.8-0.3-4.1-0.7c-0.6-0.2-1.2-0.4-1.8-0.6c-1.2-0.5-2.2-1-3.3-1.7
            c-0.5-0.3-1-0.7-1.5-1.1c-0.7-0.6-1.4-1.2-2.1-1.9c-0.7-0.7-1.4-1.4-2.1-2.2c-0.5-0.5-0.9-1.1-1.4-1.6c-0.7-0.8-1.4-1.7-2.1-2.6
            c-0.7-0.9-1.5-1.9-2.2-2.9c-0.5-0.7-1-1.3-1.6-2c-0.3-0.4-0.7-0.9-1-1.5c-0.4-0.6-0.7-1.2-1.1-2s-0.8-1.5-1.2-2.3
            c-0.2-0.4-0.4-0.8-0.6-1.3c-1-2.2-2.1-4.7-3.2-7.4c-0.4-1.1-0.9-2.2-1.3-3.3c-0.4-1.1-0.8-2.2-1.3-3.3c-0.2-0.6-0.4-1.1-0.6-1.7
            c-0.4-1.1-0.8-2.2-1.2-3.3c-1.2-3.3-2.2-6.5-3.1-9.3c-0.3-0.9-0.6-1.8-0.8-2.7c-0.1-0.4-0.3-0.8-0.4-1.2c-0.1-0.4-0.2-0.8-0.3-1.1
            c-0.3-1.1-0.6-2-0.8-2.8c-0.2-0.7-0.4-1.4-0.6-2.1c-0.2-0.7-0.4-1.4-0.6-2l0,0c-7.5-26.7-14.7-31-30.8-56.4
            c-1.4-2.2-12.3-6.3-14.8-7.2c-3.3-1.1-18.2,7.5-21.2,9.1c-1.8,1-3.3,1.6-4.6,2L341,293c7.6-0.7,15.1-2.9,21.8-6.6
            c3.1-1.7,6.5-3.7,9.8-2.6c2.5,0.8,4.1,3.1,5.5,5.3c16.8,26.6,29.5,55.7,37.5,86.2c2.2,8.3,4.1,17,9.4,23.7
            c8.6,11.1,24.2,14.3,38.2,13.1C468.9,411.6,479.7,409.3,479.4,409.4z"/>
        <path class="st1" d="M482.2,408.7C482.2,408.7,482.2,408.7,482.2,408.7"/>
        <path class="st1" d="M615.9,357.5l-31.9-35.4c0,0,0,0,0,0c-1.3,1.5-2.6,3-4,4.5c0,0-0.1,0.1-0.1,0.1c-0.2,0.2-0.4,0.5-0.7,0.7
            c-0.1,0.1-0.1,0.1-0.2,0.2c-0.2,0.2-0.4,0.4-0.6,0.6c-0.1,0.1-0.2,0.2-0.3,0.3c-0.2,0.2-0.4,0.4-0.5,0.6c-0.1,0.1-0.2,0.2-0.3,0.3
            c-0.2,0.2-0.4,0.4-0.6,0.5c-0.1,0.1-0.2,0.2-0.3,0.3c-0.2,0.2-0.4,0.3-0.6,0.5c-0.1,0.1-0.2,0.2-0.4,0.3c-0.2,0.2-0.4,0.3-0.6,0.5
            c-0.1,0.1-0.2,0.2-0.4,0.3c-0.2,0.2-0.4,0.3-0.6,0.4c-0.1,0.1-0.3,0.2-0.4,0.3c-0.2,0.1-0.4,0.3-0.6,0.4c-0.1,0.1-0.3,0.2-0.4,0.3
            c-0.2,0.1-0.4,0.3-0.7,0.4c-0.1,0.1-0.3,0.2-0.4,0.2c-0.3,0.2-0.5,0.3-0.8,0.4c-0.1,0.1-0.2,0.1-0.3,0.2c-0.4,0.2-0.7,0.4-1.1,0.5
            c-0.6,0.3-1.3,0.7-2,1.2c-0.6,0.4-1.1,0.8-1.8,1.4s-1.3,1.1-2,1.7c-0.7,0.6-1.4,1.3-2.1,2c-0.7,0.7-1.5,1.5-2.3,2.3
            c-1.1,1.1-2.1,2.2-3.3,3.4s-2.3,2.4-3.4,3.7c-0.6,0.6-1.2,1.3-1.8,1.9c-1.2,1.3-2.4,2.6-3.6,3.9c-1.2,1.3-2.4,2.7-3.6,4
            c-0.6,0.7-1.2,1.3-1.8,2c-1.8,2-3.6,3.9-5.3,5.7c-1.2,1.2-2.3,2.4-3.4,3.5c0,0,0,0,0,0c-1.1,1.1-2.2,2.2-3.2,3.1
            c-0.5,0.4-0.9,0.8-1.3,1.2c-1.3,1.2-2.5,2.2-3.7,3.1c-0.8,0.6-1.5,1.1-2.1,1.5s-1.3,0.7-1.8,0.9c-0.9,0.3-2,0.8-3.1,1.4
            s-2.4,1.2-3.7,1.9c-1.3,0.7-2.7,1.5-4.1,2.2c-1.4,0.8-2.9,1.6-4.4,2.4c-5.9,3.2-11.8,6.1-15.7,6.7c0,0-0.1,0-0.1,0
            c-0.8,0.1-1.5,0.2-2.2,0.3c0,0,0,0,0,0c-0.3,0-0.5,0.1-0.7,0.1c-0.5,0.1-1,0.2-1.5,0.2c-0.6,0.1-1.2,0.2-1.8,0.3
            c-0.1,0-0.1,0-0.2,0c-0.5,0.1-1.1,0.2-1.6,0.2c-0.1,0-0.1,0-0.2,0c-0.4,0.1-0.8,0.1-1.1,0.2l3.4,10.6c6.9-1.6,13.8-3.4,20.8-4.4
            c7.8-1.1,15.9-1.4,23.3-4.1c10.1-3.7,18.4-11.7,29-13.9c10.3-2.1,21.5,1.6,31.1-2.7c6.1-2.7,10.4-8.3,14.8-13.2
            C606.1,366.1,610.7,361.9,615.9,357.5C615.9,357.5,615.9,357.5,615.9,357.5z"/>
    </g>
    <g id="dividers">
        <polyline class="st3" points="134.8,303 124.6,291.9 133.1,288.7 144.4,236.1 122.2,242.2 103.2,217.8 60,209.8 42.2,212.6 	"/>
        <polyline class="st3" points="154.3,171.9 132.5,201.8 103.2,217.8 	"/>
        <polyline class="st3" points="347.4,236.8 347.9,245.2 340.2,283.9 	"/>
        <line class="st3" x1="480.4" y1="270.7" x2="413.7" y2="335.7"/>
        <path class="st3" d="M576.9,240.7l1.3,3.5c2.5,6.8,3.2,22-21.1,47.8L557,292c-4,4.8-55.3,72.8-69.6,104.7"/>
        <polyline class="st3" points="566.6,148.4 576.2,240.5 626.4,251 661.4,240.5 	"/>
        <polyline class="st3" points="470.6,187.7 565.9,238.4 576.2,240.5 	"/>
        <path class="st3" d="M345.9,214.2l1.5,22.6l26.3,0.3l0,0c0.2,0.2,23.5,16.1,33,16.1c0.1,0,0.3,0,0.4,0c0.5,0,1,0,1.5,0
            c9.4,0,23.4,3.5,24,3.6l47.8,13.9l8.7-73.1"/>
        <polyline class="st3" points="294.6,105.1 297.9,101.9 321.4,107.3 	"/>
        <path class="st3" d="M19.2,129.3c8.6-2.9,20.7-4.4,35.9-4.4c21.3,0,40.5,2.8,44.5,3.6c1,0.2,2.4,0.3,4.3,0.3
            c15.1,0,56.8-6.5,79-10.4c1.4-0.3,2.4-0.4,2.5-0.4c1-0.1,90.7-13.4,106.2-13.4h0.1c0.6,0,1.1,0.1,1.7,0.2l1,0.3l2,1.3
            c8.1,6.4,13,28.5,18.3,51.9c2.4,10.6,4.8,21.5,7.6,31.5c3.2,11.5,8.8,19.1,16.5,22.4c3,1.3,6.4,2,10,2c5.4,0,10.1-1.5,12.4-2.4
            l1.8-0.7l-2.9-7.5l46.5-33.7"/>
        <line class="st3" x1="480.4" y1="270.7" x2="556.3" y2="292.7"/>
        <path class="st3" d="M185.5,118.1c-0.1,0-17,1.9-26.5,15.1c-6.7,9.3-8.3,21.9-4.9,37.5l0.3,1.2l104.5,25.3l87.9,29.8"/>
    </g>
    <g id="mass-ave">
        <path class="st4" d="M142,31c0,0,134.4,73,149.5,73.1c15,0.2,20.1,48.5,30.3,85.3c5,17.8,14.7,23.4,23.4,24.4l1.4,22.6l26.4,0.4
            c0,0,24,16.6,33.4,16.2s25.5,3.7,25.5,3.7L555,292.8l20.4,12.2l43.7,49.9"/>
    </g>
    <g id="labels">
        <text transform="matrix(1 0 0 1 559.6248 240.6667)"><tspan x="0" y="0" class="st5 st6 st7">Kendall</tspan><tspan x="25.9" y="20" class="st5 st6 st7">Sq.</tspan></text>
        <text transform="matrix(1 0 0 1 429.9048 297.774)"><tspan x="0" y="0" class="st5 st6 st7">Central </tspan><tspan x="27.6" y="20" class="st5 st6 st7">Sq.</tspan></text>
        <text transform="matrix(1 0 0 1 361.3954 226.3341)" class="st5 st6 st7">Harvard Sq.</text>
        <text transform="matrix(0.9591 0.2831 -0.2831 0.9591 429.2091 247.0097)" class="st5 st8 st9 st10">MASSACHUSETTS AVE.</text>
        <text transform="matrix(0.8846 0.4663 -0.4663 0.8846 146.2775 23.8475)" class="st5 st8 st9 st10">MASSACHUSETTS AVE.</text>
        <text transform="matrix(1 0 0 1 318.8195 153.6671)"><tspan x="0" y="0" class="st5 st6 st7">Porter</tspan><tspan x="20.9" y="20" class="st5 st6 st7">Sq.</tspan></text>
    </g>
</svg>
