<svg version="1.1" xmlns="http://www.w3.org/2000/svg" xmlns:xlink="http://www.w3.org/1999/xlink" x="0px" y="0px" viewBox="0 0 300 320" style="enable-background:new 0 0 300 320;" xml:space="preserve">
    <g id="small">
        <g class="neighborhoods">
            <path id="agassiz" data-term="Agassiz" class="st1" d="M186.3,119.5l-20.6-11.2l-4,3.5l-7-17.9c-0.4-0.2-7.6-9.2-7.6-9.2l-3.2-1.2
                c0.1,13.6-9.3,32.3-16.1,46.1c-1.9,3.7-3.6,7.3-5,10.2c-2.6,5.7-3,9.8-1.4,12.3c0.9,1.3,2.1,1.9,3,2.1l11.3,3.3v-5.2l40.4-8.8
                l-1.7-12.2L186.3,119.5z"></path>
            <path id="riverside" data-term="Riverside" class="st1" d="M98.2,227.1l56.1-13.2l-37.3-53.7l-37,29.9C84.3,200.2,95.4,213.8,98.2,227.1z"></path>
            <path id="cambridgeport" data-term="Cambridgeport" class="st1" d="M154.2,213.9l-56.1,13.2c1,5.7,0.6,11.6-2.2,17.9c-5.9,13,0.1,24.9,7.3,32.3l73.2-32.5
                L154.2,213.9z"></path>
            <path id="the-port" data-term="The Port" class="st1" d="M207.5,230.5 202.9,224.4 190.8,183.6 154.2,213.9 176.4,244.8 		"></path>
            <path id="mid-cambridge" data-term="Mid Cambridge" class="st1" d="M135.7,157.4l-11.3-3.3l-7.5,6.1l37.3,53.7l36.6-30.3l-3.3-11.1c-4.5,0.6-5.8-8.3-5.8-8.3
                l-0.5-20.9h-5.2l-40.4,8.8V157.4z"></path>
            <path id="wellington-harrington" data-term="Wellington Harrington" class="st1" d="M202.9,224.4l4.6,6l40.6-47.9c-11.5-11.2-50.1-16.5-59.3-10.6
                c-0.4,0.3-0.8,0.5-1.2,0.6L202.9,224.4z"></path>
            <path id="neightborhood-9" data-term="Neighborhood Nine" class="st1" d="M127.8,129.5c6.8-13.7,16.2-32.5,16.1-46.1L93.2,64.1l-0.1,0l-3.3-2.5
                C70.3,65,68.8,80,68.7,81.5l48.2,78.7l7.5-6.1c-0.9-0.2-2.1-0.8-3-2.1c-1.6-2.5-1.2-6.7,1.4-12.3
                C124.2,136.7,125.9,133.2,127.8,129.5z"></path>
            <path id="west-cambridge" data-term="West Cambridge" class="st1" d="M78.8,152.8c10.5-2.5,8.6,13.4,8.6,13.4s-9.4,18.1-7.5,23.9l37-29.9L68.7,81.5l-9.6,6.2
                l-9.9,1.6l-1,14.4l-0.1,0.1L18.3,136l23.8,1.7l-3.5,6.7l8,6.5c0,0-8.7,17.4-13.2,25.6c-4.5,8.2-14.9,10.2-14.9,10.2v3.7
                c0,0,0,0,8.4,3c8.4,3,12.7-1.5,14.2-4.7c1.5-3.2,17.1-10.4,17.1-10.4s6.2,0,7-8.7C65.9,160.7,68.4,155.3,78.8,152.8z"></path>
            <path id="strawberry-hill" data-term="Strawberry Hill" class="st1" d="M48.2,103.6l1-14.4L15,67.8c-0.4,0.5-1.2,1.6-1.2,1.6l-11.7,2l4.7,63.9l11.4,0.8
                L48.2,103.6z"></path>
            <path id="area-2" data-term="Area 2" class="st1" d="M221.3,248.8l-13.8-18.3l-31,14.3l-73.2,32.5c4.7,4.6,10.1,7.6,13.8,8.5
                c24.3,6.3,45.5,6.6,63.8,3.4c27.1-5.1,49.4-18.9,63.8-31.5L221.3,248.8z"></path>
            <path id="east-cambridge" data-term="East Cambridge" class="st1" d="M291.6,216.9l-10.7-4.7l-2.7-6.2l-9.4-3l-0.2-16.6l-11.2,0.7l-4.2-6.2l-5,1.7
                c0,0,0,0,0,0l-40.6,47.9l13.8,18.3l23.2,8.9c16.8-15,24.8-29.4,24.8-29.4l4.5,3l-0.5,3.7l3.9,2c3,0,6.2-5.7,6.2-5.7h15.9
                L291.6,216.9z"></path>
            <path id="cambridge-highlands" data-term="Cambridge Highlands" class="st1" d="M49.2,89.3l9.9-1.6l9.6-6.2c0.2-2.1,1.6-16.5,21.1-19.9l-51.6-39
                C31.9,32,25,33.3,25,33.3c-0.4,18.9-7.2,30.5-10,34.5L49.2,89.3z"></path>
            <path id="north-cambridge" data-term="North Cambridge" class="st1" d="M154.5,93.8c0.1,0,0.1,0.1,0.2,0.1l7-4.2l-9.1-28.1l-6.8,3L117.7,3.7
                c-12.4,21.4-18.6,15.7-23.1,15.4s-8.7,7.7-8.7,7.7L46.6,0c-1.9,9.8-5.3,17.6-8.4,22.5l55,41.6l53.9,20.5L154.5,93.8z"></path>
            <path id="outside-cambridge" data-term="Outside Cambridge" class="st1" d="M0,289a17,17 0 1,0 34,0a17,17 0 1,0 -34,0"></path>
        </g>
        <g class="water">
            <path class="st2" d="M34.1,82.9c-0.1-9.5,10.3-9.5,17-8.1c0,0,0.5,3.1,0.7,4.7c2.4,5.2,9.9,1.7,12.5,2.9
                c7.6,2.8-1.3,12.2-6.8,13.1c-0.8,0.1-2.8-2.8-3.5-1.9c-6.1,1.7-0.2,8.9-2.9,12.5c-0.5,1.7-4.3,3.1-7.5,3.5c0.5-7.3-5.2-8-8.4-13.1
                c-2-2.9-1.9-6.9,0.1-9.9C35,85.7,34.1,82.9,34.1,82.9z"></path>
            <path class="st2" d="M300,232.1l-2.3-0.8h-14.3c0,0-3.2,5.7-6.2,5.7l-3.9-2l0.5-3.7l-4.5-3c0,0-8.1,14.4-24.8,29.4
                c-14.3,12.6-36.7,26.5-63.8,31.5c-18.3,3.3-39.5,2.9-63.8-3.4c-3.7-1-9.1-4-13.8-8.5C96,269.9,90,258,95.9,245
                c2.9-6.3,3.2-12.2,2.2-17.9c-2.8-13.3-13.8-26.9-18.3-37c-1.9-5.8,7.5-23.9,7.5-23.9s1.9-15.9-8.6-13.4
                c-10.5,2.5-12.9,8-13.6,16.6c-0.8,8.7-7,8.7-7,8.7s-15.7,7.2-17.1,10.4c-1.5,3.2-5.7,7.7-14.2,4.7s-8.4-3-8.4-3v-0.5
                c-3.8,2.4-9.9,6.7-13,10.9c-1.5,2-3.5,3.9-5.4,5.5v5c6.3-3.1,14.5-7.4,17.3-10.5c5-5.3,7.6-2.7,10.1-2c2.5,0.7,10.1,4,17.1-4
                c7-8,19.1-10.2,20.2-11.1s5.2-5.5,6.6-14.5c1.4-8.9,4-13.6,8.8-11.6c4.8,2,8.3,4.6,1.6,14.9c-6.7,10.3-6.8,22.9-1.6,29.5
                c5.2,6.6,15.9,17.9,13.2,32.5c-2.7,14.6-7.3,25.4-2.5,33.8c5.8,10.3,21,22.5,33.9,24.2s17.5-1,26.8,3s10,3.3,22.6,0
                c12.6-3.3,29.5-0.3,41.1-4c11.6-3.6,15.6-5.3,20.2-6.1c4.6-0.8,10.9-2.8,16.2-15.4c5.3-12.6,11.6-20.2,11.6-20.2s-2-5.6,4.6-6
                c6.6-0.3,7,0.3,8.6-2.7c1.7-3,7-3.1,9.9-3.5c3-0.4,10.5,0.7,13.7-1.3V232.1z"></path>
        </g>
        <g class="dividers">
            <polyline class="st3" points="181.3,143.8 176.1,143.8 135.7,152.7 135.7,157.9 124.4,154.6 116.9,160.6 154.2,214.4 190.8,184.1
                187.6,173 		"></polyline>
            <polyline class="st3" points="79.9,190.5 116.9,160.6 68.7,82 59.1,88.2 49.2,89.8 		"></polyline>
            <polyline class="st3" points="18.3,136.4 48.2,104.1 49.2,89.8 15,68.2 		"></polyline>
            <path class="st3" d="M38.2,23l55,41.6l53.9,20.5l7.4,9.1c0.1,0,0.1,0.1,0.2,0.1"></path>
            <path class="st3" d="M143.9,83.9c0.1,13.6-9.3,32.3-16.1,46.1c-1.9,3.7-3.6,7.3-5,10.2c-2.6,5.7-3,9.8-1.4,12.3
                c0.9,1.3,2.1,1.9,3,2.1"></path>
            <line class="st3" x1="98.2" y1="227.5" x2="154.2" y2="214.4"></line>
            <polyline class="st3" points="103.2,277.7 176.4,245.3 154.2,214.4 		"></polyline>
            <polyline class="st3" points="176.4,245.3 207.5,231 202.9,224.9 190.8,184.1 		"></polyline>
            <path class="st3" d="M89.8,62c-19.5,3.4-21,18.4-21.1,19.9"></path>
            <line class="st3" x1="176.4" y1="245.3" x2="180.8" y2="289.7"></line>
            <line class="st3" x1="244.5" y1="258.2" x2="221.3" y2="249.2"></line>
            <path class="st3" d="M248.1,183.1C248.1,183.1,248.1,183,248.1,183.1L207.5,231l13.8,18.3"></path>
            <path class="st4" d="M38.1,23l55,41.6l50.7,19.3c0.1,13.6-9.3,32.3-16.1,46.1c-1.9,3.7-3.6,7.3-5,10.2c-2.6,5.7-3,9.8-1.4,12.3
                c0.9,1.3,2.1,1.9,3,2.1l-7.5,6.1l37.3,53.7l22.2,30.9l4.3,44.4"></path>
        </g>
        <g class="labels">
            <text transform="matrix(0.8039 0.5947 -0.5947 0.8039 47.9975 23.9655)" class="st2 st5 st6">MASS AVE</text>
            <text transform="matrix(0.5764 0.8172 -0.8172 0.5764 153.0232 201.4263)" class="st2 st5 st6">MASS AVE</text>
            <g>
                <text transform="matrix(1 0 0 1 245.1088 303.1483)" class="st7 st5 st8">Boston</text>
            </g>
            <g>
                <text transform="matrix(1 0 0 1 199.9421 158.4442)" class="st7 st5 st8">Somerville</text>
            </g>
            <g>
                <rect x="154.2" y="228.6" class="st7" width="75.1" height="17.1"></rect>

                    <rect x="185.8" y="239.1" transform="matrix(0.7071 -0.7071 0.7071 0.7071 -117.1755 207.4111)" class="st7" width="12" height="12"></rect>
                <text transform="matrix(1 0 0 1 157.2258 241.216)" class="st1 st5 st8">Kendall Sq.</text>
            </g>
            <g>
                <rect x="16.8" y="280.2" class="st7" width="116" height="17.1"></rect>
                <text transform="matrix(1 0 0 1 19.7691 292.8826)" class="st1 st5 st8">Outside Cambridge</text>
            </g>
            <g>
                <rect x="109.5" y="172.6" class="st7" width="74.5" height="17.1"></rect>

                    <rect x="140.8" y="183.1" transform="matrix(0.7071 -0.7071 0.7071 0.7071 -90.7577 159.1894)" class="st7" width="12" height="12"></rect>
                <text transform="matrix(1 0 0 1 112.5198 185.216)" class="st1 st5 st8">CENTRAL Sq.</text>
            </g>
            <g>
                <rect x="112.6" y="67.1" class="st7" width="69.3" height="17.1"></rect>

                    <rect x="141.3" y="77.6" transform="matrix(0.7071 -0.7071 0.7071 0.7071 -16.0115 128.6427)" class="st7" width="12" height="12"></rect>
                <text transform="matrix(1 0 0 1 115.636 79.716)" class="st1 st5 st8">PORTER Sq.</text>
            </g>
        </g>
    </g>
    <g id="large">
        <g class="neighborhoods">
            <path id="north-cambridge_3_" data-term="North Cambridge" class="st1" d="M40.1,58.1c0.4,0.1,1,0.1,1.8,0.1c6.1,0,23.1-2.7,32.2-4.2c0.6-0.1,0.9-0.1,1-0.2
                l0.1,0c3.8-0.6,37.2-5.5,43.2-5.5h0c0.2,0,0.5,0,0.7,0.1l0.4,0.1l1.4-1.3l0,0l9.6,2.2l0.4-0.7l1.9-3.5l-21-13.7l-3.1,4.5l-51-27.1
                c0,0,2,15.5-6.4,18c-6.7,1.9-5.5,8.9-5.5,8.9L1.9,34.8l5.3,22.8l0.2,0.7c3.5-1.2,8.4-1.8,14.6-1.8C30.6,56.6,38.4,57.8,40.1,58.1z
                "></path>
            <path id="cambridge-highlands_4_"  data-term="Cambridge Highlands" class="st1" d="M23.9,91.2l17.6,3.3l11.9-6.5l8.9-12.2l-0.1-0.5c-1.4-6.4-0.7-11.5,2-15.3
                c2-2.8,4.8-4.3,6.9-5.1c1-0.4,1.9-0.6,2.6-0.8c-9.2,1.6-25.8,4.2-31.8,4.2c-0.8,0-1.3,0-1.8-0.1c-1.6-0.3-9.5-1.5-18.1-1.5
                c-6.2,0-11.1,0.6-14.6,1.8l0.2,0.8l0,0L4.2,66C13.6,78.1,16,88,16.5,91.5c0.1,0.3,0.1,0.6,0.1,0.8L23.9,91.2L23.9,91.2z"></path>
            <path id="wellington-harrington_4_" data-term="Wellington Harrington" class="st1" d="M234.2,103.7l-3.9-37.5c-0.3-0.1-0.6-0.2-0.9-0.2c-12.6-3-34.5,13.9-34.5,13.9
                c-1.2,0.8-2.4,1.3-3.6,1.6l-1.2,0.2l39.9,21.2L234.2,103.7z"></path>
            <path id="agassiz_3_" data-term="Agassiz" class="st1" d="M119.5,48.5l0.8,0.5c3.3,2.6,5.3,11.6,7.4,21.2l0,0c1,4.3,2,8.7,3.1,12.8
                c1.3,4.7,3.6,7.8,6.7,9.1c1.2,0.5,2.6,0.8,4.1,0.8c2.2,0,4.1-0.6,5-1l0.7-0.3l-1.2-3.1l0,0L165.2,75c-0.2-0.2-0.3-0.4-0.5-0.6
                c-4.1-5-5.8-4.7-5.8-4.7l4.6-7.4l-17.1-5.4l-1.3,2.3l-14.8-8.9l-0.1-0.1l0.4-0.7l-9.6-2.2L119.5,48.5z"></path>
            <path id="mid-cambridge_4_" data-term="Mid Cambridge" class="st1" d="M147.4,91.8l-0.7,0.3c-0.9,0.4-2.9,1-5.1,1c-0.4,0-0.8,0-1.2-0.1l0.6,9.2l10.7,0.1l0,0
                c0.1,0.1,9.6,6.5,13.5,6.5c0.1,0,0.1,0,0.2,0c0.2,0,0.4,0,0.6,0c3.8,0,9.6,1.4,9.8,1.5l19.4,5.7l3.6-29.7l-7.6-4l-1.1-0.6
                l-1.3,0.2c-9.8,0.8-20.1-8.1-20.1-8.1l-2.9,2c0,0,0,0,0,0c-0.2-0.2-0.3-0.4-0.5-0.7l-18.9,13.7L147.4,91.8z"></path>
            <path id="strawberry-hill_4_" data-term="Strawberry Hill" class="st1" d="M53.7,123.3l4.6-21.4l-9,2.5l0,0l-7.7-9.9l-17.6-3.3l-7.3,1.2c0,0.3,0,0.5,0,0.5
                l-0.5,0.4L10.1,98l34,35.8l9.4-4.3l0.7-0.3l-4.1-4.5L53.7,123.3z"></path>
            <path id="neightborhood-9_1_" data-term="Neighborhood Nine" class="st1" d="M137.6,92.3c-3.1-1.4-5.4-4.5-6.7-9.2c-1.2-4.1-2.1-8.5-3.1-12.8l0,0
                c-2.1-9.5-4.1-18.5-7.4-21.2l-0.8-0.5l-0.4-0.1c-0.2-0.1-0.5-0.1-0.7-0.1h0c-6,0-39.4,4.9-43.2,5.5l-0.1,0c0,0,0,0,0,0l0,0
                c0,0-1.7,0.2-4,1.1c-2,0.8-4.8,2.3-6.8,5.1c-2.7,3.8-3.4,8.9-2,15.3l0.1,0.5L104.9,86l35.8,12.1l-0.3-5.1
                C139.4,92.9,138.4,92.6,137.6,92.3z"></path>
            <path id="the-port_1_" data-term="The Port" class="st1" d="M234.2,103.7L234.2,103.7l-4.2-0.9l-31.2-16.6l-3.6,29.7l30.9,9l0,0c0.1-0.1,0.2-0.3,0.3-0.3
                l0,0c9.9-10.5,9.6-16.7,8.6-19.5l-0.5-1.4L234.2,103.7z"></path>
            <path id="riverside_3_" data-term="Riverside" class="st1" d="M175.8,110.4c-0.2-0.1-5.9-1.5-9.8-1.5c-0.2,0-0.4,0-0.6,0c-0.1,0-0.1,0-0.2,0
                c-3.9,0-13.4-6.5-13.5-6.6l0,0l-10.7-0.1l0.2,3.4l0,0l-3.1,15.7c0.2,0,0.5-0.1,0.8-0.1c0.5-0.2,1.2-0.4,1.9-0.8
                c1.3-0.7,7.3-4.2,8.7-3.7c1,0.3,5.4,2,6,2.9c6.3,10,9.3,12,12.3,22c0.1,0.3,0.2,0.6,0.3,0.9l27.2-26.5L175.8,110.4z"></path>
            <path id="east-cambridge_3_" data-term="East Cambridge" class="st1" d="M282.9,58.1l-12.1,2.7l-3.2-1.6l-5.6,2.6l-19.1-2.7l-4.5,7.6l-5.9-2.8l-1.4,2.5l0,0
                c-0.2-0.1-0.5-0.2-0.8-0.3l3.9,37.5l20.4,4.3l14.3-4.3c0.1-0.3,0.1-0.5,0.2-0.8c0.2-1.3,0.2-3,0.9-3.6c0.8-0.7,5.3-23.9,6.5-25.3
                c0.1-0.1,0.1-0.1,0.2-0.2l1.5,1.8l0.7-1.7l2.5,0.7l0.7,1.7l1.8,0.6l1.3-4.9l-0.7-0.2c0.3-0.6,0.6-1.2,1-1.8c0.3-0.5,4.4-4.6,8.4-8
                l0,0L282.9,58.1z"></path>
            <path id="area-2_4_" data-term="Area 2" class="st1" d="M254.7,108L254.7,108l-20.1-4.2l0.5,1.4c1,2.8,1.3,9-8.6,19.5l0,0
                c-1.5,1.9-22.5,29.6-28.4,42.6c0.3,0,0.6-0.1,0.9-0.1c0,0,0,0,0,0c3.2-0.5,9.6-4.8,12.7-5.9c4.1-1.5,15.9-17.2,19.8-19
                c2.5-1.1,4.2-3.3,6-5.4l13,14.4c0.9-0.8,1.8-1.5,2.8-2.3L240,134.3c8.5-8.7,22.6-20.4,28.5-29.5c0.1-0.2,0.2-0.4,0.4-0.6
                c0.1-0.1,0.1-0.3,0.2-0.5L254.7,108z"></path>
            <path id="cambridgeport_4_" data-term="Cambridgeport" class="st1" d="M195.2,116L195.2,116L195.2,116L168,142.5c0.1,0.3,0.2,0.5,0.2,0.8
                c0.1,0.3,0.1,0.6,0.2,0.8c0.9,3.4,4.7,14.9,6.9,17.7c3.5,4.5,5.3,7.6,11,7.1c3.2-0.3,8.8-1.1,8.8-1.1c0.6-0.1,1.2-0.2,1.9-0.3
                c0.3,0,0.6-0.1,1-0.1c5.6-12.5,25.3-38.7,28.1-42.3L195.2,116z"></path>
            <path id="west-cambridge_3_" data-term="West Cambridge" class="st1" d="M141,102.2L141,102.2L141,102.2l-0.3-4l-35.8-12.1L62.4,75.8L53.5,88l-11.9,6.5
                l7.7,9.9l9.1-2.5l0,0l-4.6,21.4l0,0l-3.4,1.3l4.1,4.5l0.8-0.4l18.3-8.4l1.1,5.2l9.9-1.4c2.1,3.8,3.9,14.7,3.9,21.6
                c0.1,7-5.1,9.6-5.1,9.6l2.1,2.8l0,0c1.8-1,4.5-0.9,7.1-1c0,0,0,0,0,0c0.1,0,0.3,0,0.4,0c0,0,0.1,0,0.1,0c0.1,0,0.2,0,0.3,0
                c0,0,0.1,0,0.1,0c0.1,0,0.2,0,0.3,0c0,0,0.1,0,0.1,0c0.1,0,0.2,0,0.3,0c0,0,0.1,0,0.1,0c0.1,0,0.2,0,0.2,0c0.1,0,0.1,0,0.2,0
                c0.1,0,0.2,0,0.2,0c0.1,0,0.1,0,0.2,0c0.1,0,0.1,0,0.2,0c0.1,0,0.1,0,0.2,0c0.1,0,0.1,0,0.2,0c0.1,0,0.1,0,0.2,0
                c0.1,0,0.1,0,0.2-0.1c0,0,0.1,0,0.1,0c0.1,0,0.1,0,0.2-0.1c0,0,0.1,0,0.1,0c0.1,0,0.1,0,0.2-0.1c0,0,0.1,0,0.1,0
                c0.1,0,0.1-0.1,0.2-0.1c0,0,0.1,0,0.1,0c0.1,0,0.2-0.1,0.3-0.2c3.2-1.8,2.6-5,4.2-8.9c2.2-5.3,9.5-14.1,8.1-17.3
                c-0.8-1.7-2.2-3.4-3.6-5.1l2.4-2.6c-0.1-0.2-0.2-0.4-0.3-0.5c-0.2-0.4-0.3-0.9-0.4-1.3l-2.8,3.1c-0.5-0.7-1-1.5-1.4-2.2
                c-1.6-3.4,2.9-9.3,6.5-10.5c3.6-1.2,8.4-2.5,11.3-0.1c2.9,2.4,7.4,3.7,9.3,6.9c3.8,1.1,4.7,3.2,6.4,3.6c0.3,0.1,0.5,0.1,0.8,0.1
                l3.1-15.7L141,102.2z"></path>
            <path id="outside-cambridge-1" data-term="Outside Cambridge" class="st1" d="M3.8000000000000007,157.2a12,12 0 1,0 24,0a12,12 0 1,0 -24,0"></path>
        </g>
        <g class="water">
            <path class="st2" d="M294.1,62L294.1,62L294.1,62c-4,3.4-8.1,7.4-8.4,8c-0.4,0.6-0.7,1.2-1,1.8l0.7,0.2l-1.3,4.9l-1.8-0.6
                l-0.7-1.7l-2.5-0.7l-0.7,1.7l-1.5-1.8c-0.1,0.1-0.2,0.1-0.2,0.2c-1.1,1.3-5.6,24.6-6.5,25.3c-0.7,0.6-0.7,2.3-0.9,3.6
                c0,0.3-0.1,0.6-0.2,0.8l0,0c-0.1,0.2-0.1,0.3-0.2,0.5c-0.1,0.2-0.2,0.4-0.4,0.6c-5.8,9.2-19.9,20.8-28.5,29.5l-2.5,2.7
                c-1.8,2-3.5,4.3-6,5.4c-3.9,1.8-15.7,17.5-19.8,19c-3,1.1-9.5,5.5-12.7,5.9c0,0,0,0,0,0c-0.3,0-3.2,0.5-3.8,0.6l-1.8,0.3
                c-2,0.3-3.8,0.6-7,0.8c-5.7,0.5-7.5-2.6-11-7.1c-2.1-2.8-6-14.3-6.9-17.7c-0.1-0.3-0.1-0.6-0.2-0.8c-0.1-0.3-0.2-0.6-0.2-0.8l0,0
                c-0.1-0.3-0.2-0.6-0.3-0.9c-3-10-5.9-12-12.3-22c-0.6-0.9-5-2.6-6-2.9c-1.4-0.4-7.4,3-8.7,3.7c-0.7,0.4-1.4,0.7-1.9,0.8
                c-0.3,0.1-0.6,0.1-0.8,0.1l0,0c-0.3,0-0.6,0-0.8-0.1c-1.7-0.4-2.6-2.6-6.4-3.6c-1.9-3.2-6.4-4.5-9.3-6.9s-7.7-1.1-11.3,0.1
                s-8.1,7.1-6.5,10.5c0.3,0.7,0.8,1.5,1.4,2.2l1.1,1.4c1.4,1.7,2.8,3.4,3.6,5.1c1.4,3.2-5.8,12-8.1,17.3c-1.6,3.9-1.1,7.1-4.2,8.9
                c-0.1,0.1-0.2,0.1-0.3,0.2c0,0-0.1,0-0.1,0c-0.1,0-0.1,0.1-0.2,0.1c0,0-0.1,0-0.1,0c-0.1,0-0.1,0.1-0.2,0.1c0,0-0.1,0-0.1,0
                c-0.1,0-0.1,0-0.2,0.1c0,0-0.1,0-0.1,0c-0.1,0-0.1,0-0.2,0.1c-0.1,0-0.1,0-0.2,0c-0.1,0-0.1,0-0.2,0c-0.1,0-0.1,0-0.2,0
                c-0.1,0-0.1,0-0.2,0c-0.1,0-0.1,0-0.2,0c-0.1,0-0.2,0-0.2,0c0,0-0.1,0-0.2,0c-0.1,0-0.2,0-0.2,0c0,0-0.1,0-0.1,0
                c-0.1,0-0.2,0-0.3,0c0,0-0.1,0-0.1,0c-0.1,0-0.2,0-0.3,0c0,0-0.1,0-0.1,0c-0.1,0-0.2,0-0.3,0c0,0-0.1,0-0.1,0c-0.1,0-0.3,0-0.4,0
                c0,0,0,0,0,0c-2.5,0.1-5.2,0-7.1,1l0,0l-0.1-0.2c-0.1,0.2-0.2,0.3-0.2,0.4c-4,2.6-4,12.5-5.8,16.9c-0.2,0.6-0.6,1.1-1.1,1.6H82
                c0.9-1,1.6-2,2.1-3.2c1.8-4.4,0.7-10.4,4.7-13c3-2,7.1,0,10.2-1.8c2.1-1.2,3.6-4.6,4.6-6.9c2.2-5.3,5.1-7.6,7.3-12.8
                c3.5-0.2,5.2-7,3.8-10.2c-1.2-2.8-6.1-4.9-6.8-8.6c-0.5-3.1,1.8-6.6,4.9-7.6c3.6-1.2,7.6,0.2,10.5,2.6s4.9,5.7,6.9,8.9
                c1.4,0.4,2.9,0.6,4.3,0.7l0,0c5.2,0.7,10.1-1.2,12.8-2.7c1.3-0.7,2.7-1.5,4-1.1c1,0.3,1.7,1.3,2.2,2.2c6.9,10.8,12,22.7,15.3,35.1
                c0.9,3.4,1.7,6.9,3.8,9.7c3.5,4.5,9.9,5.8,15.6,5.3c1.8-0.2,6.4-1.1,8.3-1.5l0,0c0.3-0.1,0.6-0.1,0.9-0.2l0,0
                c2.5-0.6,5-1.2,7.6-1.6c3.2-0.5,6.5-0.6,9.5-1.7c4.1-1.5,7.5-4.8,11.8-5.7c4.2-0.9,8.8,0.6,12.7-1.1c2.5-1.1,4.2-3.4,6-5.4
                c1.4-1.6,5.5-4.7,5.5-4.7c0,0,2.8-2.7,2.8-2.7c10-7.9,23.8-17.1,28.5-24.8c0.7-1.2,1.4-2.3,2.4-3.2c0.8-0.7,1.8-1.2,2.5-2
                c0.7-0.9,0.9-2.1,1.1-3.3c0.4-2.4,0.7-5.1-0.6-7.2c-0.4-0.7-3.9-12.7-4.3-17.2c-0.2-1.7-1.9-4.7-0.8-6.1c1.3-1.5,3.7-1.8,4.8-3.5
                c0.1-0.8-0.5-1.7-1.3-1.9c0.2-1.9,0.9-3.7,1.9-5.2c0.5-0.7,7.6-7.8,12.4-11v-5.8C298.3,58.7,296.2,60.2,294.1,62z"></path>
            <path class="st2" d="M25.3,95.1c-1.2-1-2-2.4-2.3-4c-0.1-0.5-0.1-1.1,0.1-1.6c0.1-0.3,0.4-0.6,0.7-0.9c1.3-1.3,2.8-2.3,4.4-3
                c1.2-0.6,2.6-1,3.2-2.3c0.3-0.6,0.3-1.3,0.7-1.9c0.5-0.8,3.1-1.7,4-1.5c0.9,0.1,1.8,0.6,2.6,1c2,1.1,4,2.1,6,3.2
                c0.8,0.4,1.7,0.9,2.6,0.8c0.9-0.1,1.7-0.7,2.5-1.3c2.6-2.1,4.4-3.9,6.9-6c0.4-0.3,0.7-0.6,1.2-0.6c0.7-0.1,1.3,0.5,1.7,1.1
                c1.4,2,1.7,4.5,1.9,7c0.1,0.6,0.1,1.3-0.2,1.9c-0.7,1.7-3.1,2.2-3.9,3.8c-0.4,0.7-0.4,1.7-1.2,1.9c-0.2,0.1-0.5,0-0.7,0
                c-1-0.2-3-0.3-4-0.2c-0.4,0-0.7,0.1-1,0.3c-0.7,0.5-0.7,1.5-0.6,2.4c0.2,2.1,0.6,3.5,2.1,4.9c1.2,1,2.9,1.4,4,2.4
                c0.2,0.2,0.4,0.5,0.5,0.8c0.2,0.8-5.3,5.4-7.3,6.7c-0.2,0.1-0.3,0.2-0.5,0.2c-0.5,0.1-1-0.4-1.3-0.8c-0.7-1-1.2-2.2-1.9-3.1
                s-1.7-1.8-2.9-2c-1.9-0.3-3.6,1-5.4,1.4c-1.8,0.4-3.8,0-5.2-1.1c-1.4-1.1-2.3-3-2.3-4.8c0-0.5-0.4-2.3-1.1-2.7
                C27.8,96.7,25.3,95.1,25.3,95.1z"></path>
            <path class="st2" d="M24.7,98c-0.5,0-0.8-0.5-1-1c-0.2-0.5-0.5-1-1-1.1c-0.2,0-0.3,0-0.5,0.1c-0.5,0.2-0.8,0.7-0.7,1.1
                c0.1,0.6,0.9,0.8,1.4,1.2c0.7,0.5,0.9,1.4,1.1,2.2s0.7,1.7,1.6,1.8c0.6,0.1,1.3-0.3,1.6-0.9c0.3-0.6,0.4-1-0.2-2.3
                S24.7,98,24.7,98z"></path>
            <path class="st2" d="M23.8,79.7c0.1,0.7-0.8,1.3-1.9,1.5c-1.2,0.2-2.2-0.2-2.3-0.9c-0.1-0.7,0.6-1.7,1.8-1.9
                C22.5,78.2,23.7,79,23.8,79.7z"></path>
            <path class="st2" d="M34.1,76c0.4,1-0.2,2.2-1.4,2.6c-1.1,0.4-2.4,0-2.8-1c-0.4-1-0.4-1.5,0.7-2C31.9,75.2,33.7,75,34.1,76z"></path>
        </g>
        <g class="dividers">
            <polyline id="cambridgeport_3_" class="st3" points="226.1,125.1 195.2,116.1 195.2,116.1 		"></polyline>
            <line id="mid-cambridge_2_" class="st3" x1="140.4" y1="93.1" x2="140.7" y2="98.3"></line>
            <polyline class="st3" points="141,102.2 141.2,105.6 138.1,121.4 		"></polyline>
            <polyline class="st3" points="119.5,48.5 120.8,47.2 130.4,49.4 		"></polyline>
            <line class="st3" x1="195.2" y1="116" x2="226.1" y2="125"></line>
            <path id="riverside_5_" class="st3" d="M168,142.6l27.2-26.5l-19.4-5.6c-0.2-0.1-5.9-1.5-9.8-1.5c-0.2,0-0.4,0-0.6,0
                c-0.1,0-0.1,0-0.2,0c-3.9,0-13.4-6.5-13.5-6.6l0,0l-10.7-0.1"></path>
            <polyline id="west-cambridge_5_" class="st3" points="138,121.5 141.2,105.7 140.9,102.3 140.9,102.3 140.9,102.3 140.7,98.3
                104.9,86.2 62.3,75.9 53.4,88.1 41.5,94.6 		"></polyline>
            <path id="north-cambridge_5_" class="st3" d="M7.3,58.5c3.5-1.2,8.4-1.8,14.6-1.8c8.7,0,16.5,1.2,18.1,1.5c0.4,0.1,1,0.1,1.8,0.1
                c6.1,0,23.1-2.7,32.2-4.2c0.6-0.1,0.9-0.1,1-0.2l0.1,0c3.8-0.6,37.2-5.5,43.2-5.5h0c0.2,0,0.5,0,0.7,0.1l0.4,0.1l1.4-1.3l0,0
                l9.6,2.2"></path>
            <polyline id="wellington-harrington_3_" class="st3" points="190.1,81.7 230,102.9 234.2,103.8 230.3,66.3 		"></polyline>
            <path id="agassiz_4_" class="st3" d="M119.5,48.7l0.8,0.5c3.3,2.6,5.3,11.6,7.4,21.2l0,0c1,4.3,2,8.7,3.1,12.8
                c1.3,4.7,3.6,7.8,6.7,9.1c1.2,0.5,2.6,0.8,4.1,0.8c2.2,0,4.1-0.6,5-1l0.7-0.3l-1.2-3.1l0,0l18.9-13.7"></path>
            <line id="mid-cambridge_6_" class="st3" x1="195.2" y1="116.1" x2="198.7" y2="86.4"></line>
            <polyline id="strawberry-hill_6_" class="st3" points="54.3,129.3 50.2,124.8 53.6,123.4 58.2,102 49.2,104.5 49.2,104.5
                41.5,94.6 23.9,91.3 16.6,92.5 		"></polyline>
            <path id="neightborhood-nine_5_" class="st3" d="M75.1,53.9L75,54c0,0,0,0,0,0l0,0c0,0-1.7,0.2-4,1.1c-2,0.8-4.8,2.3-6.8,5.1
                c-2.7,3.8-3.4,8.9-2,15.3l0.1,0.5"></path>
            <path id="area-2_6_" class="st3" d="M268.7,104.3c0.1-0.1,0.1-0.3,0.2-0.5l-14.3,4.3l0,0l-20.1-4.2l0.5,1.4c1,2.8,1.3,9-8.6,19.5
                l0,0c-1.5,1.9-22.5,29.6-28.4,42.6"></path>
            <path class="st9" d="M57.3,18.3c0,0,54.8,29.7,60.9,29.8c6.1,0.1,8.2,19.8,12.4,34.8c2,7.3,6,9.5,9.5,9.9l0.6,9.2l10.8,0.1
                c0,0,9.8,6.7,13.6,6.6s10.4,1.5,10.4,1.5l50.2,14.7l8.3,5l17.8,20.3"></path>
        </g>
        <g class="labels">
            <g>
                <text transform="matrix(1 0 0 1 78.9962 98.1154)"><tspan x="0" y="0" class="st10 st5 st11">West</tspan><tspan x="-8.5" y="7" class="st10 st5 st11">Cambridge</tspan></text>
                <rect x="67.5" y="91.2" class="st7" width="37.5" height="16.1"></rect>
                <text transform="matrix(1 0 0 1 78.9962 98.1154)"><tspan x="0" y="0" class="st1 st5 st11">West</tspan><tspan x="-8.5" y="7" class="st1 st5 st11">Cambridge</tspan></text>
            </g>
            <g>
                <rect x="149.1" y="136.6" class="st7" width="51.9" height="9.1"></rect>
                <text transform="matrix(1 0 0 1 152.0867 143.4809)" class="st1 st5 st11">Cambridgeport</text>
            </g>
            <g>
                <rect x="223.4" y="130.1" class="st7" width="24.3" height="9.1"></rect>
                <text transform="matrix(1 0 0 1 226.3832 136.9565)" class="st1 st5 st11">Area 2</text>
            </g>
            <g>
                <rect x="245.6" y="54.7" class="st7" width="37.5" height="16.1"></rect>
                <text transform="matrix(1 0 0 1 257.8744 61.5467)"><tspan x="0" y="0" class="st1 st5 st11">East</tspan><tspan x="-9.2" y="7" class="st1 st5 st11">Cambridge</tspan></text>
            </g>
            <g>
                <rect x="17.9" y="32.9" class="st7" width="58.1" height="9.1"></rect>
                <text transform="matrix(1 0 0 1 20.8554 39.8145)" class="st1 st5 st11">North Cambridge</text>
            </g>
            <g>
                <rect x="143.2" y="115" class="st7" width="33.7" height="9.1"></rect>
                <text transform="matrix(1 0 0 1 146.1522 121.8965)" class="st1 st5 st11">Riverside</text>
            </g>
            <g>
                <rect x="208.7" y="97.4" class="st7" width="31" height="9.1"></rect>
                <text transform="matrix(1 0 0 1 211.6582 104.2873)" class="st1 st5 st11">The Port</text>
            </g>
            <g>
                <rect x="63.4" y="60.3" class="st7" width="55.4" height="9.1"></rect>
                <text transform="matrix(1 0 0 1 66.3582 67.1626)" class="st1 st5 st11">Neighborhood 9</text>
            </g>
            <g>
                <rect x="0.6" y="110.4" class="st7" width="43.4" height="16.1"></rect>
                <text transform="matrix(1 0 0 1 3.5505 117.3052)"><tspan x="0" y="0" class="st1 st5 st11">Strawberry </tspan><tspan x="12.8" y="7" class="st1 st5 st11">Hill</tspan></text>
            </g>
            <g>
                <rect x="14.3" y="151.9" class="st7" width="62" height="9.1"></rect>
                <text transform="matrix(1 0 0 1 17.3303 158.8052)" class="st1 st5 st11">Outside Cambridge</text>
            </g>
            <g>
                <rect x="145.7" y="86.3" class="st7" width="49.5" height="9.1"></rect>
                <text transform="matrix(1 0 0 1 148.7198 93.1971)" class="st1 st5 st11">Mid Cambridge</text>
            </g>
            <g>
                <rect x="136.8" y="54.4" class="st7" width="28.1" height="9.1"></rect>
                <text transform="matrix(1 0 0 1 139.7992 61.3159)" class="st1 st5 st11">Agassiz</text>
            </g>
            <g>
                <text transform="matrix(1 0 0 1 260.4058 161.1869)" class="st7 st5 st12">Boston</text>
            </g>
            <g>
                <text transform="matrix(1 0 0 1 154.9798 45.8148)" class="st7 st5 st12">Somerville</text>
            </g>
            <g>
                <rect x="180" y="54.9" class="st7" width="43.6" height="16.1"></rect>
                <text transform="matrix(1 0 0 1 182.9862 61.8147)"><tspan x="0" y="0" class="st1 st5 st11">Wellington-</tspan><tspan x="0.9" y="7" class="st1 st5 st11">Harrington</tspan></text>
            </g>
            <g>
                <rect x="0.4" y="53.9" class="st7" width="37.5" height="16.1"></rect>
                <text transform="matrix(1 0 0 1 3.406 60.8147)"><tspan x="0" y="0" class="st1 st5 st11">Cambridge</tspan><tspan x="0.1" y="7" class="st1 st5 st11">Highlands</tspan></text>
            </g>
            <text transform="matrix(0.9667 0.2559 -0.2559 0.9667 163.5137 103.4557)" class="st2 st5 st11">MASS AVE</text>
            <text transform="matrix(0.8846 0.4663 -0.4663 0.8846 63.336 18.3373)" class="st2 st5 st11">MASS AVE</text>
        </g>
    </g>
</svg>
