<?xml version="1.0" encoding="iso-8859-1"?>
<!-- Generator: Adobe Illustrator 19.2.0, SVG Export Plug-In . SVG Version: 6.00 Build 0)  -->
<svg version="1.1" xmlns="http://www.w3.org/2000/svg" xmlns:xlink="http://www.w3.org/1999/xlink" x="0px" y="0px"
	 viewBox="0 0 322 62" style="enable-background:new 0 0 322 62;" xml:space="preserve">
<g id="Layer_1">
</g>
<g id="Layer_2">
	<g>
		<g>
			<rect style="fill:none;" width="322" height="62"/>
			<g>
				<g>
					
						<ellipse transform="matrix(0.1457 -0.9893 0.9893 0.1457 -1.9808 39.6224)" style="fill:#2A0058;" cx="21.951" cy="20.958" rx="4.919" ry="4.919"/>
					<g>
						<path style="fill:#2A0058;" d="M44.267,43.588c-4.757,1.031-7.706,0.831-9.713-0.087c0.632-0.731,1.253-1.529,1.856-2.404
							c0,0-11.767-3.971-6.19-10.079c4.692-3.762,8.164-9.304,8.373-9.642c0.243-0.393,0.169-0.904-0.176-1.212
							c-0.345-0.308-0.861-0.323-1.224-0.037c-4.403,3.474-8.719,5.815-12.83,6.959c-3.248,0.904-6.377,1.064-9.299,0.477
							c-4.964-0.997-7.681-3.853-7.725-3.9c-0.334-0.362-0.89-0.409-1.28-0.108c-0.391,0.301-0.487,0.851-0.222,1.267
							c1.908,2.99,5.363,5.774,8.959,7.573c1.974,1.335,5.07,4.348,1.494,8.628c-0.141,0.168-0.276,0.348-0.409,0.533
							c-2.467,2.4-4.404,5.61-5.714,9.519c-1.586,4.733-1.704,8.779-1.708,8.949c-0.012,0.461,0.309,0.864,0.761,0.957
							C9.284,60.994,9.348,61,9.411,61c0.384,0,0.738-0.223,0.885-0.591c1.706-4.299,3.544-7.51,5.69-9.814
							c3.351,0.469,8.416,0.395,13.409-2.66c1.516,0.498,3.112,0.749,4.764,0.749c1.652,0,3.358-0.251,5.093-0.754
							c3.38-0.981,5.667-2.564,5.763-2.631c0.372-0.26,0.509-0.746,0.327-1.162C45.16,43.722,44.711,43.492,44.267,43.588z"/>
						<g>
							
								<ellipse transform="matrix(0.1457 -0.9893 0.9893 0.1457 34.9192 55.5606)" style="fill:#FA771B;" cx="49.629" cy="7.562" rx="3.988" ry="3.988"/>
							<path style="fill:#FA771B;" d="M70.412,25.396c-0.173-0.431-0.632-0.675-1.085-0.576c-4.161,0.902-7.232,0.412-9.128-1.456
								c-1.629-1.604-2.372-4.335-2.1-7.519c1.528-0.175,5.459-0.875,8.9,1.257c0.41,0.254,0.897,0.34,1.265,0.027
								c0.368-0.313,0.443-0.851,0.176-1.253c-0.121-0.182-2.073-3.509-8.295-4.57c-6.069-1.035-12.997,1.342-20.592,7.067
								c-0.383,0.289-0.492,0.817-0.253,1.233c0.174,0.305,0.494,0.479,0.827,0.479c0.122,0,0.246-0.024,0.365-0.073
								c0.049-0.02,3.181-1.311,7.336-2.432c0.06,0.309,0.131,0.644,0.214,1.01c0.243,1.069,0.709,2.832,1.433,4.49
								c-2.365,1.904-3.792,4.13-4.64,5.965c-1.458,3.154-1.563,5.821-1.567,5.933c-0.015,0.451,0.288,0.85,0.726,0.957
								c0.075,0.018,0.151,0.027,0.226,0.027c0.36,0,0.698-0.205,0.859-0.542c2.294-4.8,5.427-6.633,8.901-7.644
								c2.052,0.87,4.25,1.312,6.525,1.312c1.307,0,2.639-0.146,3.983-0.438c3.269-0.712,5.449-2.033,5.54-2.089
								C70.422,26.32,70.585,25.827,70.412,25.396z"/>
						</g>
						<path style="fill:#FA771B;" d="M14.375,2.206c-0.021-0.012-0.043-0.023-0.064-0.035c-2.168-1.163-4.611-1.51-6.974-0.816
							c-2.386,0.7-4.317,2.211-5.509,4.394C-0.635,10.254,0.866,16.223,5.39,18.65c0.021,0.011,0.043,0.023,0.064,0.034
							c4.495,2.412,10.149,0.693,12.599-3.791C20.515,10.388,18.898,4.633,14.375,2.206z M7.057,15.695
							c-0.014-0.007-0.027-0.015-0.041-0.022c-2.904-1.558-3.89-5.351-2.309-8.243c0.766-1.401,1.997-2.357,3.53-2.807
							c1.517-0.445,3.079-0.208,4.47,0.538c0.014,0.007,0.028,0.015,0.041,0.022c2.904,1.558,3.961,5.219,2.38,8.111
							C13.555,16.174,9.943,17.244,7.057,15.695z"/>
					</g>
					<path style="fill:#FA771B;" d="M5.32,22.279c0.742-1.384,1.005-2.835,1.081-3.292l-1.772-0.95
						c-0.318,0.328-1.413,1.332-2.155,2.714c-0.49,0.913-2.108,3.928-2.177,4.057c-0.232,0.432-0.041,0.986,0.391,1.218
						c0.265,0.142,1.016,0.545,1.281,0.687c0.432,0.232,0.942,0.054,1.174-0.378C3.212,26.207,4.83,23.192,5.32,22.279z"/>
				</g>
				<g>
					<g>
						<path style="fill:#2A0058;" d="M184.507,19.367c1.096,0.413,2.133,1.032,3.11,1.857l-2.606,3.094
							c-1.26-1.085-2.606-1.628-4.039-1.628c-1.498,0-2.687,0.646-3.566,1.938c-0.879,1.292-1.319,3.263-1.319,5.911
							c0,2.628,0.44,4.576,1.319,5.846c0.879,1.27,2.101,1.905,3.664,1.905c0.803,0,1.536-0.163,2.199-0.488
							c0.662-0.326,1.395-0.792,2.198-1.4l2.41,3.127c-0.825,0.826-1.846,1.515-3.062,2.068c-1.216,0.554-2.552,0.831-4.006,0.831
							c-2.085,0-3.898-0.456-5.439-1.368c-1.542-0.912-2.741-2.264-3.599-4.055c-0.858-1.792-1.287-3.946-1.287-6.465
							c0-2.453,0.44-4.57,1.319-6.351c0.879-1.78,2.085-3.132,3.615-4.055c1.531-0.923,3.273-1.384,5.228-1.384
							C182.123,18.748,183.41,18.955,184.507,19.367z"/>
						<path style="fill:#2A0058;" d="M203.853,38.29c0.184,0.304,0.483,0.532,0.896,0.684l-1.075,3.355
							c-1.064-0.087-1.927-0.315-2.589-0.684c-0.663-0.369-1.189-0.966-1.58-1.791c-1.129,1.715-2.866,2.573-5.211,2.573
							c-1.715,0-3.083-0.5-4.104-1.498c-1.021-0.998-1.531-2.301-1.531-3.908c0-1.889,0.695-3.333,2.084-4.332
							c1.389-0.999,3.398-1.498,6.025-1.498h1.759v-0.749c0-1.02-0.217-1.721-0.651-2.101c-0.435-0.38-1.194-0.57-2.28-0.57
							c-0.565,0-1.249,0.082-2.052,0.244c-0.804,0.163-1.628,0.386-2.475,0.668l-1.172-3.387c1.085-0.412,2.198-0.727,3.338-0.944
							c1.14-0.217,2.198-0.326,3.176-0.326c2.475,0,4.288,0.51,5.439,1.531c1.151,1.021,1.726,2.552,1.726,4.592v6.709
							C203.576,37.509,203.668,37.987,203.853,38.29z M197.339,38.323c0.467-0.282,0.863-0.684,1.189-1.205v-3.094h-1.27
							c-1.172,0-2.047,0.207-2.622,0.619c-0.576,0.413-0.863,1.053-0.863,1.922c0,0.695,0.179,1.233,0.537,1.612
							c0.358,0.38,0.852,0.57,1.482,0.57C196.356,38.746,196.872,38.605,197.339,38.323z"/>
						<path style="fill:#2A0058;" d="M228.785,25.409c0.825,0.923,1.238,2.198,1.238,3.827v12.637h-5.146V30.115
							c0-1.542-0.489-2.313-1.466-2.313c-0.543,0-1.021,0.185-1.433,0.554c-0.413,0.37-0.814,0.934-1.205,1.694v11.823h-5.146
							V30.115c0-1.542-0.489-2.313-1.466-2.313c-0.521,0-0.993,0.19-1.417,0.57c-0.423,0.38-0.831,0.939-1.221,1.677v11.823h-5.146
							V24.578h4.495l0.358,2.019c0.673-0.868,1.417-1.515,2.231-1.938c0.814-0.423,1.742-0.635,2.785-0.635
							c0.955,0,1.786,0.239,2.492,0.717c0.705,0.478,1.232,1.151,1.58,2.019c0.695-0.912,1.46-1.596,2.296-2.052
							c0.836-0.456,1.796-0.684,2.882-0.684C226.863,24.025,227.96,24.486,228.785,25.409z"/>
						<path style="fill:#2A0058;" d="M247.138,26.435c1.118,1.607,1.677,3.876,1.677,6.807c0,1.781-0.277,3.366-0.831,4.755
							c-0.554,1.39-1.347,2.475-2.378,3.257c-1.032,0.782-2.253,1.172-3.664,1.172c-0.956,0-1.819-0.19-2.589-0.57
							c-0.771-0.38-1.417-0.928-1.938-1.645l-0.261,1.661h-4.56V17.706l5.146-0.554v9.185c0.499-0.695,1.161-1.254,1.987-1.677
							c0.825-0.423,1.682-0.635,2.573-0.635C244.407,24.025,246.019,24.828,247.138,26.435z M243.474,33.242
							c0-2.041-0.239-3.457-0.717-4.25c-0.478-0.792-1.162-1.189-2.052-1.189c-1.172,0-2.161,0.673-2.964,2.019v7.165
							c0.695,1.129,1.607,1.694,2.736,1.694C242.475,38.681,243.474,36.869,243.474,33.242z"/>
						<path style="fill:#2A0058;" d="M261.843,24.318l-0.814,4.983c-0.651-0.152-1.172-0.228-1.563-0.228
							c-0.999,0-1.77,0.347-2.312,1.042c-0.543,0.695-0.966,1.737-1.27,3.127v8.631h-5.146V24.578h4.495l0.423,3.322
							c0.391-1.194,0.982-2.128,1.775-2.801c0.792-0.673,1.688-1.01,2.687-1.01C260.746,24.09,261.322,24.166,261.843,24.318z"/>
						<path style="fill:#2A0058;" d="M268.535,16.289c0.575,0.554,0.863,1.254,0.863,2.101s-0.288,1.547-0.863,2.101
							c-0.576,0.554-1.308,0.831-2.199,0.831c-0.891,0-1.618-0.277-2.182-0.831c-0.565-0.554-0.847-1.254-0.847-2.101
							s0.282-1.547,0.847-2.101c0.564-0.554,1.291-0.83,2.182-0.83C267.227,15.459,267.96,15.736,268.535,16.289z M263.796,41.873
							V24.578h5.146v17.295H263.796z"/>
						<path style="fill:#2A0058;" d="M287.181,41.873h-4.56l-0.261-2.019c-0.521,0.782-1.194,1.406-2.019,1.873
							c-0.825,0.467-1.791,0.7-2.899,0.7c-2.15,0-3.784-0.825-4.902-2.475c-1.119-1.65-1.677-3.908-1.677-6.775
							c0-1.78,0.288-3.36,0.863-4.739c0.575-1.379,1.406-2.459,2.492-3.241c1.086-0.782,2.356-1.173,3.811-1.173
							c0.76,0,1.482,0.142,2.166,0.423c0.684,0.282,1.297,0.684,1.84,1.205v-8.501l5.146,0.554V41.873z M282.035,36.727v-7.491
							c-0.413-0.477-0.83-0.841-1.254-1.091c-0.423-0.249-0.896-0.375-1.417-0.375c-0.977,0-1.748,0.44-2.313,1.319
							c-0.565,0.879-0.847,2.253-0.847,4.12c0,2.019,0.244,3.431,0.733,4.234c0.489,0.804,1.199,1.205,2.133,1.205
							C280.222,38.649,281.21,38.008,282.035,36.727z"/>
						<path style="fill:#2A0058;" d="M300.861,26.272c1.129,0.478,1.954,1.064,2.475,1.759c0.521,0.695,0.782,1.596,0.782,2.703
							c0,1.107-0.293,2.101-0.879,2.98c-0.586,0.879-1.428,1.569-2.524,2.068c-1.097,0.5-2.383,0.749-3.86,0.749
							c-0.695,0-1.357-0.065-1.987-0.195c-0.174,0.087-0.309,0.223-0.407,0.407c-0.098,0.185-0.147,0.375-0.147,0.57
							c0,0.326,0.125,0.581,0.375,0.765c0.249,0.185,0.754,0.277,1.514,0.277h2.606c1.324,0,2.486,0.217,3.485,0.651
							c0.998,0.435,1.769,1.032,2.312,1.791c0.543,0.76,0.814,1.617,0.814,2.573c0,1.802-0.777,3.208-2.329,4.218
							c-1.553,1.01-3.794,1.514-6.726,1.514c-2.106,0-3.767-0.223-4.983-0.668c-1.216-0.445-2.068-1.07-2.557-1.873
							c-0.489-0.804-0.733-1.813-0.733-3.029h4.625c0,0.521,0.103,0.933,0.309,1.238c0.206,0.304,0.581,0.532,1.124,0.684
							c0.542,0.152,1.324,0.228,2.345,0.228c1.411,0,2.388-0.168,2.931-0.505c0.543-0.337,0.814-0.82,0.814-1.449
							c0-0.521-0.207-0.934-0.619-1.238c-0.413-0.304-1.032-0.456-1.857-0.456h-2.508c-1.781,0-3.11-0.32-3.99-0.961
							c-0.879-0.64-1.319-1.46-1.319-2.459c0-0.63,0.184-1.243,0.554-1.84c0.369-0.597,0.868-1.091,1.498-1.482
							c-1.086-0.586-1.873-1.275-2.361-2.068c-0.489-0.792-0.733-1.753-0.733-2.882c0-1.932,0.695-3.469,2.085-4.609
							c1.389-1.14,3.224-1.71,5.504-1.71c1.737,0.044,3.208-0.13,4.413-0.521s2.448-0.966,3.729-1.726l1.205,3.811
							C304.714,26.044,303.053,26.272,300.861,26.272z M294.721,28.177c-0.467,0.51-0.7,1.211-0.7,2.101
							c0,0.934,0.233,1.656,0.7,2.166c0.467,0.51,1.102,0.765,1.905,0.765c0.847,0,1.493-0.249,1.938-0.749
							c0.445-0.499,0.668-1.248,0.668-2.247c0-1.867-0.869-2.801-2.606-2.801C295.823,27.412,295.188,27.668,294.721,28.177z"/>
						<path style="fill:#2A0058;" d="M321.705,34.74h-10.683c0.152,1.455,0.554,2.475,1.205,3.062
							c0.651,0.586,1.552,0.879,2.703,0.879c0.695,0,1.368-0.125,2.019-0.375c0.651-0.249,1.357-0.635,2.117-1.156l2.117,2.866
							c-2.019,1.607-4.267,2.41-6.742,2.41c-2.801,0-4.951-0.825-6.449-2.475c-1.498-1.65-2.247-3.865-2.247-6.644
							c0-1.759,0.314-3.339,0.944-4.739c0.63-1.4,1.552-2.508,2.768-3.322c1.216-0.814,2.671-1.221,4.364-1.221
							c2.497,0,4.451,0.782,5.863,2.345c1.411,1.563,2.117,3.735,2.117,6.514C321.803,33.6,321.77,34.219,321.705,34.74z
							 M316.755,31.418c-0.044-2.649-0.977-3.973-2.801-3.973c-0.891,0-1.575,0.32-2.052,0.961
							c-0.478,0.641-0.782,1.721-0.912,3.241h5.765V31.418z"/>
					</g>
					<g>
						<path style="fill:#2A0058;" d="M99.31,22.942c0.89,0,1.623-0.277,2.199-0.831c0.575-0.554,0.863-1.254,0.863-2.101
							c0-0.847-0.288-1.547-0.863-2.101c-0.576-0.554-1.308-0.83-2.199-0.83c-0.891,0-1.618,0.277-2.182,0.83
							c-0.565,0.554-0.847,1.254-0.847,2.101c0,0.847,0.282,1.547,0.847,2.101C97.693,22.665,98.42,22.942,99.31,22.942z"/>
						<rect x="96.93" y="24.606" style="fill:#2A0058;" width="5.089" height="17.303"/>
						<path style="fill:#2A0058;" d="M109.754,30.042c0.814-1.498,1.854-2.247,2.896-2.247c0.543,0,0.927,0.168,1.198,0.505
							c0.271,0.337,0.384,0.939,0.384,1.808v11.801h5.293v-12.68c0-1.65-0.524-2.931-1.371-3.843s-2.089-1.368-3.587-1.368
							c-1.042,0-2.008,0.217-2.865,0.651c-0.858,0.435-1.674,1.103-2.434,1.972l-0.366-2.034h-4.44v17.303h5.293V30.042z"/>
						<path style="fill:#2A0058;" d="M155.149,36.166c0,4.148,1.788,6.232,5.567,6.253c0.825,0,1.605-0.12,2.441-0.358
							c0.836-0.239,1.543-0.575,2.173-1.01l-1.744-3.29c-0.63,0.391-1.253,0.586-1.86,0.586c-0.565,0-0.907-0.174-1.167-0.521
							c-0.261-0.347-0.321-0.923-0.321-1.726V28.27h3.275l0.554-3.664h-3.829v-4.367l-5.089,0.586v3.78h-2.443v3.664h2.443V36.166z"
							/>
						<path style="fill:#2A0058;" d="M127.662,42.419c1.107,0,2.073-0.234,2.899-0.7c0.825-0.467,1.498-1.07,2.019-1.851
							l0.261,2.041h4.598V18.092h-5.089v7.554c-0.611-0.521-1.204-0.923-1.888-1.205c-0.684-0.282-1.43-0.423-2.19-0.423
							c-1.455,0-2.737,0.391-3.823,1.173c-1.086,0.782-1.922,1.862-2.497,3.241c-0.576,1.379-0.866,2.959-0.866,4.739
							c0,2.866,0.557,5.125,1.676,6.775C123.88,41.594,125.513,42.419,127.662,42.419z M127.27,29.082
							c0.564-0.879,1.336-1.319,2.313-1.319c0.521,0,1.041,0.125,1.465,0.375c0.423,0.25,0.895,0.614,1.302,1.091v7.491
							c-0.814,1.281-1.861,1.922-3.011,1.922c-0.934,0-1.669-0.402-2.157-1.205c-0.489-0.803-0.745-2.215-0.745-4.234
							C126.437,31.335,126.705,29.961,127.27,29.082z"/>
						<rect x="145.174" y="18.092" style="fill:#2A0058;" width="5.293" height="23.817"/>
						<polygon style="fill:#2A0058;" points="87.159,32.341 93.673,32.341 93.673,28.473 87.159,28.473 87.159,21.959 
							94.596,21.959 94.691,21.86 94.691,18.092 81.866,18.092 81.866,41.908 87.159,41.908 						"/>
					</g>
				</g>
			</g>
		</g>
	</g>
	<g>
	</g>
	<g>
	</g>
	<g>
	</g>
	<g>
	</g>
	<g>
	</g>
	<g>
	</g>
	<g>
	</g>
	<g>
	</g>
	<g>
	</g>
	<g>
	</g>
	<g>
	</g>
	<g>
	</g>
	<g>
	</g>
	<g>
	</g>
	<g>
	</g>
</g>
</svg>
