<svg id="Layer_1" data-name="Layer 1" xmlns="http://www.w3.org/2000/svg" viewBox="0 0 34 34"><defs><style>.cls-1{fill:#2a0058;}</style></defs><title>icon-instagram-color</title><path class="cls-1" d="M27.29,24.65a2.65,2.65,0,0,1-2.64,2.64H9.35a2.65,2.65,0,0,1-2.64-2.64V9.35A2.65,2.65,0,0,1,9.35,6.71h15.3a2.65,2.65,0,0,1,2.64,2.64ZM25,15.42H23.15a5.86,5.86,0,0,1,.27,1.76,6.3,6.3,0,0,1-6.4,6.2,6.3,6.3,0,0,1-6.39-6.2,5.86,5.86,0,0,1,.27-1.76H9V24.1a.81.81,0,0,0,.82.82H24.14A.81.81,0,0,0,25,24.1V15.42ZM17,13a4,4,0,1,0,4.14,4A4.07,4.07,0,0,0,17,13Zm7.94-3A.93.93,0,0,0,24,9H21.7a.93.93,0,0,0-.92.92v2.21a.93.93,0,0,0,.92.92H24a.93.93,0,0,0,.92-.92Z"/></svg>