<?xml version="1.0" encoding="iso-8859-1"?>
<!-- Generator: Adobe Illustrator 19.2.0, SVG Export Plug-In . SVG Version: 6.00 Build 0)  -->
<svg version="1.1" xmlns="http://www.w3.org/2000/svg" xmlns:xlink="http://www.w3.org/1999/xlink" x="0px" y="0px"
	 viewBox="0 0 34 34" style="enable-background:new 0 0 34 34;" xml:space="preserve">
<g id="Layer_1">
</g>
<g id="Layer_2">
	<g>
		<g>
			<rect style="fill:none;" width="34" height="34"/>
			<path style="fill:#FFFFFF;" d="M27.175,11.593V24.84c0,1.184-0.96,2.24-2.176,2.24H9c-1.216,0-2.176-1.056-2.176-2.24V11.593
				c0-1.216,0.96-2.176,2.176-2.176h2.048v0.864c0,0.864,0.704,1.536,1.536,1.536s1.536-0.672,1.536-1.536V9.417h5.664v0.864
				c0,0.864,0.672,1.536,1.536,1.536c0.8,0,1.536-0.672,1.536-1.536V9.417H25C26.215,9.417,27.175,10.377,27.175,11.593z
				 M11.977,13.832H8.841v2.912h3.136V13.832z M11.977,17.896H8.841v2.912h3.136V17.896z M11.977,21.927H8.841v2.912h3.136V21.927z
				 M11.625,10.281V7.849c0-0.512,0.448-0.928,0.96-0.928c0.512,0,0.96,0.416,0.96,0.928v2.432c0,0.544-0.448,0.96-0.96,0.96
				C12.072,11.24,11.625,10.824,11.625,10.281z M25.16,13.832H13.128v2.912H25.16V13.832z M25.16,17.896H13.128v2.912H25.16V17.896z
				 M25.16,21.927H13.128v2.912H25.16V21.927z M20.36,10.281V7.849c0-0.512,0.416-0.928,0.96-0.928c0.48,0,0.96,0.416,0.96,0.928
				v2.432c0,0.544-0.48,0.96-0.96,0.96C20.776,11.24,20.36,10.824,20.36,10.281z"/>
		</g>
	</g>
	<g>
	</g>
	<g>
	</g>
	<g>
	</g>
	<g>
	</g>
	<g>
	</g>
	<g>
	</g>
	<g>
	</g>
	<g>
	</g>
	<g>
	</g>
	<g>
	</g>
	<g>
	</g>
	<g>
	</g>
	<g>
	</g>
	<g>
	</g>
	<g>
	</g>
</g>
</svg>
