<?xml version="1.0" encoding="iso-8859-1"?>
<!-- Generator: Adobe Illustrator 19.2.0, SVG Export Plug-In . SVG Version: 6.00 Build 0)  -->
<svg version="1.1" xmlns="http://www.w3.org/2000/svg" xmlns:xlink="http://www.w3.org/1999/xlink" x="0px" y="0px"
	 viewBox="0 0 34 34" style="enable-background:new 0 0 34 34;" xml:space="preserve">
<g id="Layer_1">
</g>
<g id="Layer_2">
	<g>
		<g>
			<rect style="fill:none;" width="34" height="34"/>
			<g>
				<g>
					<path style="fill:#FFFFFF;" d="M24.729,7.889c-0.018-0.016-0.036-0.031-0.053-0.047c-1.788-1.573-4.016-2.437-6.397-2.303
						c-2.404,0.135-4.557,1.136-6.161,2.931c-3.312,3.707-3.209,9.665,0.523,12.948c0.017,0.015,0.035,0.031,0.053,0.046
						c3.708,3.263,9.417,2.885,12.714-0.804C28.719,16.953,28.46,11.172,24.729,7.889z M14.862,18.998
						c-0.011-0.01-0.023-0.02-0.034-0.03c-2.396-2.108-2.491-5.901-0.365-8.281c1.03-1.153,2.402-1.784,3.945-1.87
						c1.529-0.086,2.949,0.48,4.097,1.491c0.011,0.01,0.023,0.02,0.034,0.03c2.396,2.108,2.587,5.792,0.46,8.172
						C20.884,20.879,17.243,21.093,14.862,18.998z"/>
				</g>
				<path style="fill:#FFFFFF;" d="M11.776,24.825c1.004-1.142,1.572-2.452,1.743-2.867l-1.462-1.285
					c-0.372,0.24-1.626,0.945-2.629,2.086c-0.663,0.753-2.851,3.241-2.944,3.346c-0.314,0.357-0.256,0.921,0.101,1.235
					c0.219,0.192,0.838,0.737,1.057,0.93c0.357,0.314,0.877,0.258,1.19-0.098C8.925,28.065,11.114,25.578,11.776,24.825z"/>
			</g>
		</g>
	</g>
	<g>
	</g>
	<g>
	</g>
	<g>
	</g>
	<g>
	</g>
	<g>
	</g>
	<g>
	</g>
	<g>
	</g>
	<g>
	</g>
	<g>
	</g>
	<g>
	</g>
	<g>
	</g>
	<g>
	</g>
	<g>
	</g>
	<g>
	</g>
	<g>
	</g>
</g>
</svg>
