<?xml version="1.0" encoding="iso-8859-1"?>
<!-- Generator: Adobe Illustrator 19.2.0, SVG Export Plug-In . SVG Version: 6.00 Build 0)  -->
<svg version="1.1" xmlns="http://www.w3.org/2000/svg" xmlns:xlink="http://www.w3.org/1999/xlink" x="0px" y="0px"
	 viewBox="0 0 34 34" style="enable-background:new 0 0 34 34;" xml:space="preserve">
<g id="Layer_1">
</g>
<g id="Layer_2">
	<g>
		<g>
			<rect style="fill:none;" width="34" height="34"/>
			<path style="fill:#FFFFFF;" d="M27.863,7.449c0.928,0,1.696,0.768,1.696,1.696v2.816c0,0.928-0.768,1.696-1.696,1.696h-2.56
				c0,0,0,0.704,0,12.191c0,1.184-0.864,2.08-2.112,2.08H10.809c-1.152,0-2.112-0.896-2.112-2.08c0-10.111,0-12.191,0-12.191h-2.56
				c-0.928,0-1.696-0.768-1.696-1.696V9.145c0-0.928,0.768-1.696,1.696-1.696h5.696V7.321c0-0.672,0.576-1.248,1.28-1.248H13.4
				c0.704,0,1.248,0.576,1.248,1.248v0.128h4.736V7.321c0-0.672,0.544-1.248,1.216-1.248h0.32c0.704,0,1.248,0.576,1.248,1.248
				v0.128H27.863z M13.944,16.472c0.64,0,1.152-0.48,1.152-1.12c0-0.64-0.512-1.152-1.152-1.152c-0.64,0-1.12,0.512-1.12,1.152
				C12.824,15.992,13.304,16.472,13.944,16.472z M13.944,19.416c0.64,0,1.152-0.48,1.152-1.12s-0.512-1.152-1.152-1.152
				c-0.64,0-1.12,0.512-1.12,1.152S13.304,19.416,13.944,19.416z M13.944,22.36c0.64,0,1.152-0.48,1.152-1.12
				s-0.512-1.152-1.152-1.152c-0.64,0-1.12,0.512-1.12,1.152S13.304,22.36,13.944,22.36z M13.944,25.303
				c0.64,0,1.152-0.48,1.152-1.12c0-0.64-0.512-1.152-1.152-1.152c-0.64,0-1.12,0.512-1.12,1.152
				C12.824,24.823,13.304,25.303,13.944,25.303z M16.984,16.472c0.64,0,1.152-0.48,1.152-1.12c0-0.64-0.512-1.152-1.152-1.152
				c-0.64,0-1.12,0.512-1.12,1.152C15.864,15.992,16.344,16.472,16.984,16.472z M16.984,19.416c0.64,0,1.152-0.48,1.152-1.12
				s-0.512-1.152-1.152-1.152c-0.64,0-1.12,0.512-1.12,1.152S16.344,19.416,16.984,19.416z M16.984,22.36
				c0.64,0,1.152-0.48,1.152-1.12s-0.512-1.152-1.152-1.152c-0.64,0-1.12,0.512-1.12,1.152S16.344,22.36,16.984,22.36z
				 M16.984,25.303c0.64,0,1.152-0.48,1.152-1.12c0-0.64-0.512-1.152-1.152-1.152c-0.64,0-1.12,0.512-1.12,1.152
				C15.864,24.823,16.344,25.303,16.984,25.303z M20.024,16.472c0.64,0,1.152-0.48,1.152-1.12c0-0.64-0.512-1.152-1.152-1.152
				c-0.64,0-1.12,0.512-1.12,1.152C18.904,15.992,19.384,16.472,20.024,16.472z M20.024,19.416c0.64,0,1.152-0.48,1.152-1.12
				s-0.512-1.152-1.152-1.152c-0.64,0-1.12,0.512-1.12,1.152S19.384,19.416,20.024,19.416z M20.024,22.36
				c0.64,0,1.152-0.48,1.152-1.12s-0.512-1.152-1.152-1.152c-0.64,0-1.12,0.512-1.12,1.152S19.384,22.36,20.024,22.36z
				 M20.024,25.303c0.64,0,1.152-0.48,1.152-1.12c0-0.64-0.512-1.152-1.152-1.152c-0.64,0-1.12,0.512-1.12,1.152
				C18.904,24.823,19.384,25.303,20.024,25.303z"/>
		</g>
	</g>
	<g>
	</g>
	<g>
	</g>
	<g>
	</g>
	<g>
	</g>
	<g>
	</g>
	<g>
	</g>
	<g>
	</g>
	<g>
	</g>
	<g>
	</g>
	<g>
	</g>
	<g>
	</g>
	<g>
	</g>
	<g>
	</g>
	<g>
	</g>
	<g>
	</g>
</g>
</svg>
