<?xml version="1.0" encoding="iso-8859-1"?>
<!-- Generator: Adobe Illustrator 19.2.1, SVG Export Plug-In . SVG Version: 6.00 Build 0)  -->
<svg version="1.1" xmlns="http://www.w3.org/2000/svg" xmlns:xlink="http://www.w3.org/1999/xlink" x="0px" y="0px"
	 viewBox="0 0 34 34" style="enable-background:new 0 0 34 34;" xml:space="preserve">
<g id="Layer_1">
</g>
<g id="Layer_2">
	<g>
		<g>
			<path style="fill:#FFFFFF;" d="M27.289,23.431c0,2.13-1.728,3.858-3.858,3.858H10.569c-2.13,0-3.858-1.728-3.858-3.858V10.569
				c0-2.13,1.728-3.858,3.858-3.858h12.861c2.13,0,3.858,1.728,3.858,3.858V23.431z M21.1,22.118
				c-0.322,0.161-0.924,0.295-1.38,0.295c-1.367,0.04-1.648-0.951-1.648-1.688v-5.332h3.443v-2.599h-3.43V8.426
				c-2.479,0-2.519,0-2.519,0c-0.04,0-0.107,0.04-0.121,0.134c-0.147,1.327-0.777,3.685-3.376,4.622v2.211h1.742v5.6
				c0,1.916,1.407,4.649,5.145,4.582c1.259-0.027,2.666-0.549,2.974-1.005L21.1,22.118z"/>
			<rect style="fill:none;" width="34" height="34"/>
		</g>
	</g>
	<g>
	</g>
	<g>
	</g>
	<g>
	</g>
	<g>
	</g>
	<g>
	</g>
	<g>
	</g>
	<g>
	</g>
	<g>
	</g>
	<g>
	</g>
	<g>
	</g>
	<g>
	</g>
	<g>
	</g>
	<g>
	</g>
	<g>
	</g>
	<g>
	</g>
</g>
</svg>
