<?xml version="1.0" encoding="iso-8859-1"?>
<!-- Generator: Adobe Illustrator 19.2.0, SVG Export Plug-In . SVG Version: 6.00 Build 0)  -->
<svg version="1.1" xmlns="http://www.w3.org/2000/svg" xmlns:xlink="http://www.w3.org/1999/xlink" x="0px" y="0px"
	 viewBox="0 0 34 34" style="enable-background:new 0 0 34 34;" xml:space="preserve">
<g id="Layer_1">
</g>
<g id="Layer_2">
	<g>
		<g>
			<rect style="fill:none;" width="34" height="34"/>
			<path style="fill:#FFFFFF;" d="M24.679,7.289c1.44,0,2.048,0.608,2.048,2.016v15.391c0,1.344-0.608,2.016-2.048,2.016H19.4
				v-6.335h2.496v-3.04H19.4V15.32c0-0.608,0.128-1.216,1.152-1.216h1.344v-2.848h-2.848c-2.016,0-3.072,1.024-3.072,2.848v3.231
				h-2.048v3.04h2.048v6.335H9.289c-1.312,0-2.016-0.672-2.016-2.016V9.304c0-1.408,0.704-2.016,2.016-2.016H24.679z"/>
		</g>
	</g>
	<g>
	</g>
	<g>
	</g>
	<g>
	</g>
	<g>
	</g>
	<g>
	</g>
	<g>
	</g>
	<g>
	</g>
	<g>
	</g>
	<g>
	</g>
	<g>
	</g>
	<g>
	</g>
	<g>
	</g>
	<g>
	</g>
	<g>
	</g>
	<g>
	</g>
</g>
</svg>
