<?xml version="1.0" encoding="iso-8859-1"?>
<!-- Generator: Adobe Illustrator 19.2.0, SVG Export Plug-In . SVG Version: 6.00 Build 0)  -->
<svg version="1.1" xmlns="http://www.w3.org/2000/svg" xmlns:xlink="http://www.w3.org/1999/xlink" x="0px" y="0px"
	 viewBox="0 0 34 34" style="enable-background:new 0 0 34 34;" xml:space="preserve">
<g id="Layer_1">
</g>
<g id="Layer_2">
	<g>
		<g>
			<rect style="fill:none;" width="34" height="34"/>
			<path style="fill:#FFFFFF;" d="M29.047,13.512v9.375c0,1.088-0.896,1.984-1.92,1.984h-1.952l0.864,3.904H8.344l0.704-3.904H6.937
				c-1.152,0-1.984-0.896-1.984-1.984v-9.375c0-1.088,0.832-1.983,1.984-1.983h2.464V8.521h0.864V5.225h13.503v3.296h0.864v3.008
				h2.496C28.151,11.529,29.047,12.424,29.047,13.512z M9.689,15.016c0-0.736-0.64-1.375-1.408-1.375
				c-0.736,0-1.375,0.64-1.375,1.375c0,0.768,0.64,1.376,1.375,1.376C9.049,16.392,9.689,15.784,9.689,15.016z M24.407,27.591
				l-1.216-6.175H10.808l-0.928,6.175H24.407z M11.16,13.896h11.711V6.441H11.16V13.896z M16.344,23.816h-3.552v0.896h3.552V23.816z
				 M21.4,23.816h-3.552v0.896H21.4V23.816z"/>
		</g>
	</g>
	<g>
	</g>
	<g>
	</g>
	<g>
	</g>
	<g>
	</g>
	<g>
	</g>
	<g>
	</g>
	<g>
	</g>
	<g>
	</g>
	<g>
	</g>
	<g>
	</g>
	<g>
	</g>
	<g>
	</g>
	<g>
	</g>
	<g>
	</g>
	<g>
	</g>
</g>
</svg>
