<?xml version="1.0" encoding="iso-8859-1"?>
<!-- Generator: Adobe Illustrator 19.2.0, SVG Export Plug-In . SVG Version: 6.00 Build 0)  -->
<svg version="1.1" xmlns="http://www.w3.org/2000/svg" xmlns:xlink="http://www.w3.org/1999/xlink" x="0px" y="0px"
	 viewBox="0 0 34 34" style="enable-background:new 0 0 34 34;" xml:space="preserve">
<g id="Layer_1">
</g>
<g id="Layer_2">
	<g>
		<g>
			<rect style="fill:none;" width="34" height="34"/>
			<path style="fill:#FFFFFF;" d="M28.727,25.159c0,1.344-1.056,2.304-2.304,2.304H7.609c-1.248,0-2.336-1.024-2.336-2.304
				c0-0.384,0.096-0.8,0.32-1.152l9.439-16.319c0.384-0.704,1.12-1.152,1.984-1.152c0.832,0,1.568,0.448,1.984,1.152l9.439,16.319
				C28.631,24.359,28.727,24.775,28.727,25.159z M15.128,23.303c0,1.056,0.832,1.888,1.919,1.888s1.92-0.832,1.92-1.888
				c0-1.088-0.832-1.952-1.92-1.952S15.128,22.183,15.128,23.303z M15.32,19.56h3.424v-7.647H15.32V19.56z"/>
		</g>
	</g>
	<g>
	</g>
	<g>
	</g>
	<g>
	</g>
	<g>
	</g>
	<g>
	</g>
	<g>
	</g>
	<g>
	</g>
	<g>
	</g>
	<g>
	</g>
	<g>
	</g>
	<g>
	</g>
	<g>
	</g>
	<g>
	</g>
	<g>
	</g>
	<g>
	</g>
</g>
</svg>
