<?xml version="1.0" encoding="iso-8859-1"?>
<!-- Generator: Adobe Illustrator 19.2.0, SVG Export Plug-In . SVG Version: 6.00 Build 0)  -->
<svg version="1.1" xmlns="http://www.w3.org/2000/svg" xmlns:xlink="http://www.w3.org/1999/xlink" x="0px" y="0px"
	 viewBox="0 0 34 34" style="enable-background:new 0 0 34 34;" xml:space="preserve">
<g id="Layer_1">
</g>
<g id="Layer_2">
	<g>
		<g>
			<rect style="fill:none;" width="34" height="34"/>
			<path style="fill:#2A0058;" d="M19.172,16.992l4.121-4.121c0.611-0.611,0.61-1.561,0-2.172c-0.588-0.588-1.561-0.611-2.172,0
				L17,14.819l-4.129-4.129c-0.588-0.588-1.584-0.588-2.172,0c-0.611,0.611-0.588,1.584,0,2.172l4.129,4.129l-4.138,4.138
				c-0.588,0.588-0.588,1.584,0,2.172c0.611,0.611,1.584,0.588,2.172,0L17,19.164l4.129,4.129c0.611,0.611,1.561,0.611,2.172,0
				c0.588-0.588,0.611-1.561,0-2.172L19.172,16.992z"/>
		</g>
	</g>
	<g>
	</g>
	<g>
	</g>
	<g>
	</g>
	<g>
	</g>
	<g>
	</g>
	<g>
	</g>
	<g>
	</g>
	<g>
	</g>
	<g>
	</g>
	<g>
	</g>
	<g>
	</g>
	<g>
	</g>
	<g>
	</g>
	<g>
	</g>
	<g>
	</g>
</g>
</svg>
