<?xml version="1.0" encoding="iso-8859-1"?>
<!-- Generator: Adobe Illustrator 19.2.1, SVG Export Plug-In . SVG Version: 6.00 Build 0)  -->
<svg version="1.1" xmlns="http://www.w3.org/2000/svg" xmlns:xlink="http://www.w3.org/1999/xlink" x="0px" y="0px"
	 viewBox="0 0 34 34" style="enable-background:new 0 0 34 34;" xml:space="preserve">
<g id="Layer_1">
</g>
<g id="Layer_2">
	<g>
		<g>
			<path style="fill:#FFFFFF;" d="M27.289,24.65c0,1.447-1.192,2.639-2.639,2.639H9.35c-1.447,0-2.639-1.192-2.639-2.639V9.35
				c0-1.447,1.192-2.639,2.639-2.639h15.3c1.447,0,2.639,1.192,2.639,2.639V24.65z M24.958,15.419h-1.809
				c0.174,0.549,0.268,1.152,0.268,1.755c0,3.43-2.867,6.203-6.404,6.203c-3.523,0-6.39-2.773-6.39-6.203
				c0-0.603,0.094-1.206,0.268-1.755H9.002v8.682c0,0.456,0.362,0.817,0.817,0.817h14.321c0.456,0,0.817-0.362,0.817-0.817V15.419z
				 M17.013,12.954c-2.277,0-4.126,1.795-4.126,4.006c0,2.21,1.849,4.006,4.126,4.006c2.291,0,4.14-1.795,4.14-4.006
				C21.153,14.749,19.304,12.954,17.013,12.954z M24.958,9.926c0-0.509-0.416-0.924-0.924-0.924h-2.331
				c-0.509,0-0.925,0.415-0.925,0.924v2.21c0,0.509,0.416,0.924,0.925,0.924h2.331c0.509,0,0.924-0.415,0.924-0.924V9.926z"/>
			<rect style="fill:none;" width="34" height="34"/>
		</g>
	</g>
	<g>
	</g>
	<g>
	</g>
	<g>
	</g>
	<g>
	</g>
	<g>
	</g>
	<g>
	</g>
	<g>
	</g>
	<g>
	</g>
	<g>
	</g>
	<g>
	</g>
	<g>
	</g>
	<g>
	</g>
	<g>
	</g>
	<g>
	</g>
	<g>
	</g>
</g>
</svg>
