<?xml version="1.0" encoding="iso-8859-1"?>
<!-- Generator: Adobe Illustrator 19.2.0, SVG Export Plug-In . SVG Version: 6.00 Build 0)  -->
<svg version="1.1" xmlns="http://www.w3.org/2000/svg" xmlns:xlink="http://www.w3.org/1999/xlink" x="0px" y="0px"
	 viewBox="0 0 34 34" style="enable-background:new 0 0 34 34;" xml:space="preserve">
<g id="Layer_1">
</g>
<g id="Layer_2">
	<g>
		<g>
			<rect style="fill:none;" width="34" height="34"/>
			<path style="fill:#FFFFFF;" d="M28.839,9.58l-2.784,2.592c0,0.32-0.032,0.576-0.032,0.8c-0.096,2.4-0.352,6.688-4.288,10.559
				c-5.888,5.952-15.391,1.984-16.575,0.8c0,0,4.448,0.192,6.848-2.016c0,0-3.296-0.384-4.224-3.392h2.368
				c0,0-4.192-1.024-4.192-4.832c0,0,1.28,0.48,2.528,0.576c0,0-3.711-2.688-1.792-6.335c0,0,3.648,4.736,9.888,4.959
				c-0.992-2.88,1.088-6.016,4.64-6.016c1.056,0,2.24,0.352,3.104,1.28c0.832-0.128,2.624-0.256,3.84-0.96l0.032,0.064l-2.144,2.304
				c0,0,1.696-0.288,2.752-0.448C28.807,9.516,28.807,9.484,28.839,9.58z"/>
		</g>
	</g>
	<g>
	</g>
	<g>
	</g>
	<g>
	</g>
	<g>
	</g>
	<g>
	</g>
	<g>
	</g>
	<g>
	</g>
	<g>
	</g>
	<g>
	</g>
	<g>
	</g>
	<g>
	</g>
	<g>
	</g>
	<g>
	</g>
	<g>
	</g>
	<g>
	</g>
</g>
</svg>
