<svg id="Layer_1" data-name="Layer 1" xmlns="http://www.w3.org/2000/svg" viewBox="0 0 34 34"><defs><style>.cls-1{fill:#2a0058;}</style></defs><title>icon-twitter-color</title><path class="cls-1" d="M28.84,9.58l-2.78,2.59c0,.32,0,.58,0,.8a14.52,14.52,0,0,1-4.29,10.56c-5.89,6-15.39,2-16.58.8,0,0,4.45.19,6.85-2a5.25,5.25,0,0,1-4.22-3.39h2.37S6,17.9,6,14.09a10.68,10.68,0,0,0,2.53.58S4.78,12,6.7,8.33a14,14,0,0,0,9.89,5,4.59,4.59,0,0,1,4.64-6,4.2,4.2,0,0,1,3.1,1.28,11.2,11.2,0,0,0,3.84-1l0,.06L26.06,10s1.7-.29,2.75-.45C28.81,9.52,28.81,9.48,28.84,9.58Z"/></svg>