<svg xmlns="http://www.w3.org/2000/svg" width="144.722" height="27" viewBox="0 0 144.722 27">
  <title>cArtboard 1</title>
  <g>
    <path d="M9.467,11.171A2.214,2.214,0,1,0,7.6,8.659a2.213,2.213,0,0,0,1.868,2.512" fill="#171717"/>
    <path d="M19.832,19.165c-2.141.464-3.468.373-4.371-.039a12.41,12.41,0,0,0,.835-1.082S11,16.257,13.51,13.508A19.289,19.289,0,0,0,17.278,9.17a.428.428,0,0,0-.629-.562,16.817,16.817,0,0,1-5.774,3.131,8.945,8.945,0,0,1-4.184.215A6.944,6.944,0,0,1,3.214,10.2a.429.429,0,0,0-.676.522,10.49,10.49,0,0,0,4.031,3.407c.889.6,2.282,1.957.673,3.883-.063.075-.124.156-.184.239a10.572,10.572,0,0,0-2.571,4.284,15.149,15.149,0,0,0-.769,4.027.428.428,0,0,0,.343.43A.409.409,0,0,0,4.146,27a.423.423,0,0,0,.4-.266,13.981,13.981,0,0,1,2.561-4.416,9.065,9.065,0,0,0,6.034-1.2,6.847,6.847,0,0,0,2.144.337,8.245,8.245,0,0,0,2.292-.339,9.587,9.587,0,0,0,2.593-1.184.428.428,0,0,0-.336-.77" fill="#171717"/>
    <path d="M21.983,4.729a1.8,1.8,0,1,0-1.514-2.037,1.8,1.8,0,0,0,1.514,2.037" fill="#010101"/>
    <path d="M31.6,10.979a.43.43,0,0,0-.489-.26c-1.872.406-3.255.186-4.107-.655a4.21,4.21,0,0,1-.946-3.383,5.983,5.983,0,0,1,4.006.566.472.472,0,0,0,.569.012.43.43,0,0,0,.079-.564c-.055-.082-.933-1.578-3.733-2.056-2.732-.466-5.849.6-9.266,3.18a.428.428,0,0,0,.258.77.431.431,0,0,0,.164-.032,30.009,30.009,0,0,1,3.3-1.1c.027.138.059.289.1.454a11.854,11.854,0,0,0,.645,2.021,7.451,7.451,0,0,0-2.088,2.684,7.583,7.583,0,0,0-.7,2.67.431.431,0,0,0,.327.431.438.438,0,0,0,.1.012.428.428,0,0,0,.386-.244A5.925,5.925,0,0,1,24.2,12.05a7.472,7.472,0,0,0,2.936.591,8.463,8.463,0,0,0,1.792-.2,8.709,8.709,0,0,0,2.493-.94.429.429,0,0,0,.174-.525" fill="#010101"/>
    <path d="M6.38.543,6.351.527A4.123,4.123,0,0,0,3.212.16,4.074,4.074,0,0,0,.733,2.137a4.3,4.3,0,0,0,1.6,5.806l.028.015A4.216,4.216,0,0,0,6.38.543M3.087,6.613,3.068,6.6A2.745,2.745,0,0,1,2.029,2.894,2.6,2.6,0,0,1,3.618,1.631a2.634,2.634,0,0,1,2.011.242l.019.01a2.689,2.689,0,0,1-2.561,4.73" fill="#010101"/>
    <path d="M2.305,9.576a4.981,4.981,0,0,0,.487-1.482l-.8-.427a5.316,5.316,0,0,0-.97,1.222L.045,10.714a.413.413,0,0,0,.176.548l.576.309a.388.388,0,0,0,.529-.17l.979-1.825" fill="#010101"/>
    <path d="M82.939,8.265a4.784,4.784,0,0,1,1.4.836l-1.173,1.392a2.742,2.742,0,0,0-1.817-.733,1.848,1.848,0,0,0-1.605.872,4.779,4.779,0,0,0-.594,2.661,4.667,4.667,0,0,0,.594,2.631,1.9,1.9,0,0,0,1.649.857,2.219,2.219,0,0,0,.989-.22,6.3,6.3,0,0,0,.989-.63l1.085,1.406a4.652,4.652,0,0,1-1.377.931,4.292,4.292,0,0,1-1.8.374,4.719,4.719,0,0,1-2.448-.615,4.125,4.125,0,0,1-1.62-1.825,6.687,6.687,0,0,1-.579-2.909,6.393,6.393,0,0,1,.594-2.859A4.273,4.273,0,0,1,78.85,8.61,4.469,4.469,0,0,1,81.2,7.987a4.937,4.937,0,0,1,1.737.278" fill="#171717"/>
    <path d="M91.645,16.78a.752.752,0,0,0,.4.309L91.565,18.6A2.862,2.862,0,0,1,90.4,18.29a1.724,1.724,0,0,1-.71-.8,2.614,2.614,0,0,1-2.345,1.157,2.528,2.528,0,0,1-1.847-.674,2.349,2.349,0,0,1-.689-1.759,2.253,2.253,0,0,1,.938-1.949,4.6,4.6,0,0,1,2.711-.675h.792v-.336a1.223,1.223,0,0,0-.294-.946,1.576,1.576,0,0,0-1.025-.257,4.726,4.726,0,0,0-.924.111,9.4,9.4,0,0,0-1.114.3l-.527-1.524a8.9,8.9,0,0,1,1.5-.425,7.653,7.653,0,0,1,1.429-.147,3.628,3.628,0,0,1,2.448.689,2.619,2.619,0,0,1,.776,2.067v3.019a1.278,1.278,0,0,0,.125.644m-2.931.015a1.613,1.613,0,0,0,.535-.542V14.86h-.572a2.03,2.03,0,0,0-1.18.279.992.992,0,0,0-.388.865,1.016,1.016,0,0,0,.242.725.872.872,0,0,0,.667.257,1.322,1.322,0,0,0,.7-.191" fill="#171717"/>
    <path d="M102.864,10.984a2.49,2.49,0,0,1,.558,1.722v5.687h-2.316V13.1q0-1.041-.66-1.041a.944.944,0,0,0-.645.249,2.655,2.655,0,0,0-.542.763v5.32H96.943V13.1q0-1.041-.659-1.041a.933.933,0,0,0-.638.257,2.714,2.714,0,0,0-.549.755v5.32H92.781V10.611H94.8l.162.908a3.084,3.084,0,0,1,1-.872,2.668,2.668,0,0,1,1.252-.286,1.955,1.955,0,0,1,1.122.323,1.924,1.924,0,0,1,.711.909,3.293,3.293,0,0,1,1.033-.924,2.668,2.668,0,0,1,1.3-.308,1.888,1.888,0,0,1,1.48.623" fill="#171717"/>
    <path d="M111.123,11.446a5.316,5.316,0,0,1,.755,3.063,5.749,5.749,0,0,1-.373,2.14,3.332,3.332,0,0,1-1.071,1.465,2.65,2.65,0,0,1-1.648.528,2.6,2.6,0,0,1-1.166-.256,2.359,2.359,0,0,1-.872-.74l-.117.747h-2.052V7.518l2.316-.249V11.4a2.453,2.453,0,0,1,.894-.755,2.65,2.65,0,0,1,3.334.8m-1.649,3.063a4,4,0,0,0-.322-1.912,1.02,1.02,0,0,0-.923-.535,1.561,1.561,0,0,0-1.334.908v3.224a1.4,1.4,0,0,0,1.231.762q1.349,0,1.348-2.447" fill="#171717"/>
    <path d="M117.74,10.493l-.366,2.243a3.239,3.239,0,0,0-.7-.1,1.244,1.244,0,0,0-1.04.469,3.523,3.523,0,0,0-.572,1.407v3.884h-2.316V10.61h2.023l.191,1.5a2.71,2.71,0,0,1,.8-1.261,1.819,1.819,0,0,1,1.209-.455,2.778,2.778,0,0,1,.777.1" fill="#171717"/>
    <path d="M120.752,6.881a1.342,1.342,0,0,1,0,1.89,1.37,1.37,0,0,1-.989.374,1.343,1.343,0,0,1-.982-.374,1.36,1.36,0,0,1,0-1.89,1.34,1.34,0,0,1,.982-.375,1.366,1.366,0,0,1,.989.375M118.62,10.61h2.316v7.783H118.62Z" fill="#171717"/>
    <path d="M129.143,18.393h-2.052l-.118-.909a2.631,2.631,0,0,1-.908.843,2.6,2.6,0,0,1-1.3.315,2.5,2.5,0,0,1-2.206-1.113,5.366,5.366,0,0,1-.755-3.049,5.511,5.511,0,0,1,.388-2.132,3.323,3.323,0,0,1,1.122-1.459,2.851,2.851,0,0,1,1.714-.527,2.529,2.529,0,0,1,.975.19,2.644,2.644,0,0,1,.828.542V7.269l2.316.249Zm-2.316-2.316V12.706a2.324,2.324,0,0,0-.564-.49,1.224,1.224,0,0,0-.637-.169,1.179,1.179,0,0,0-1.041.593,3.506,3.506,0,0,0-.381,1.854,3.933,3.933,0,0,0,.33,1.906,1.057,1.057,0,0,0,.96.542,1.589,1.589,0,0,0,1.333-.865" fill="#171717"/>
    <path d="M135.3,11.373a2.626,2.626,0,0,1,1.113.791,1.971,1.971,0,0,1,.352,1.216,2.363,2.363,0,0,1-.4,1.341,2.644,2.644,0,0,1-1.135.931,4.157,4.157,0,0,1-1.737.338,4.372,4.372,0,0,1-.894-.089.412.412,0,0,0-.183.184.525.525,0,0,0-.066.256.407.407,0,0,0,.168.345,1.257,1.257,0,0,0,.681.124h1.173a3.918,3.918,0,0,1,1.569.293,2.436,2.436,0,0,1,1.04.807,1.943,1.943,0,0,1,.367,1.157,2.145,2.145,0,0,1-1.049,1.9,5.555,5.555,0,0,1-3.026.682,6.733,6.733,0,0,1-2.243-.3,2.137,2.137,0,0,1-1.15-.843,2.582,2.582,0,0,1-.33-1.363h2.081a.983.983,0,0,0,.14.558.864.864,0,0,0,.5.307,4.155,4.155,0,0,0,1.055.1,2.711,2.711,0,0,0,1.32-.227.727.727,0,0,0,.366-.653.653.653,0,0,0-.279-.556,1.4,1.4,0,0,0-.835-.206h-1.129a3.051,3.051,0,0,1-1.795-.432,1.317,1.317,0,0,1-.594-1.107,1.57,1.57,0,0,1,.249-.828,2.06,2.06,0,0,1,.675-.667,2.723,2.723,0,0,1-1.063-.93,2.426,2.426,0,0,1-.329-1.3,2.544,2.544,0,0,1,.937-2.074,3.784,3.784,0,0,1,2.477-.769,6.014,6.014,0,0,0,1.986-.234A8.378,8.378,0,0,0,137,9.35l.542,1.714a6.254,6.254,0,0,1-2.242.309m-2.763.857a1.347,1.347,0,0,0-.315.945,1.391,1.391,0,0,0,.315.975,1.269,1.269,0,0,0,1.729.008,1.485,1.485,0,0,0,.3-1.012q0-1.26-1.173-1.26a1.1,1.1,0,0,0-.857.344" fill="#171717"/>
    <path d="M144.678,15.183h-4.807a2.1,2.1,0,0,0,.543,1.378,1.749,1.749,0,0,0,1.216.4,2.5,2.5,0,0,0,.908-.169,4.665,4.665,0,0,0,.953-.52l.953,1.29a4.755,4.755,0,0,1-3.034,1.084,3.719,3.719,0,0,1-2.9-1.114,4.278,4.278,0,0,1-1.011-2.99,5.15,5.15,0,0,1,.424-2.132,3.358,3.358,0,0,1,3.21-2.045,3.373,3.373,0,0,1,2.639,1.056,4.22,4.22,0,0,1,.952,2.931,6.9,6.9,0,0,1-.044.835m-2.227-1.495q-.03-1.787-1.261-1.788a1.082,1.082,0,0,0-.923.432,2.945,2.945,0,0,0-.411,1.459h2.595Z" fill="#171717"/>
    <path d="M44.6,9.874A1.369,1.369,0,0,0,45.59,9.5a1.344,1.344,0,0,0,0-1.891,1.37,1.37,0,0,0-.989-.374,1.343,1.343,0,0,0-.982.374,1.364,1.364,0,0,0,0,1.891,1.343,1.343,0,0,0,.982.373" fill="#171717"/>
    <rect x="43.53" y="10.622" width="2.29" height="7.786" fill="#171717"/>
    <path d="M49.3,13.069a1.6,1.6,0,0,1,1.3-1.011.644.644,0,0,1,.539.227,1.35,1.35,0,0,1,.173.813v5.311H53.7V12.7a2.463,2.463,0,0,0-.617-1.728,2.123,2.123,0,0,0-1.614-.616,2.822,2.822,0,0,0-1.29.293,3.719,3.719,0,0,0-1.095.887l-.165-.915h-2v7.786H49.3Z" fill="#171717"/>
    <path d="M69.728,15.825c0,1.866.805,2.8,2.505,2.814a3.9,3.9,0,0,0,1.1-.162,3.263,3.263,0,0,0,.978-.454l-.785-1.48a1.585,1.585,0,0,1-.837.263.588.588,0,0,1-.525-.234,1.345,1.345,0,0,1-.145-.777V12.272h1.474l.249-1.649H72.018V8.658l-2.29.264v1.7h-1.1v1.649h1.1Z" fill="#171717"/>
    <path d="M57.36,18.638a2.576,2.576,0,0,0,2.212-1.147l.118.918h2.068V7.691H59.469v3.4a3.181,3.181,0,0,0-.85-.542,2.586,2.586,0,0,0-.985-.19,2.87,2.87,0,0,0-1.72.528,3.318,3.318,0,0,0-1.124,1.458,5.5,5.5,0,0,0-.39,2.132,5.375,5.375,0,0,0,.754,3.049,2.5,2.5,0,0,0,2.206,1.113m-.177-6a1.178,1.178,0,0,1,1.041-.593,1.316,1.316,0,0,1,.659.168,2.342,2.342,0,0,1,.586.491v3.371a1.617,1.617,0,0,1-1.356.865,1.075,1.075,0,0,1-.97-.542,3.921,3.921,0,0,1-.335-1.906,3.513,3.513,0,0,1,.375-1.854" fill="#171717"/>
    <rect x="65.239" y="7.691" width="2.382" height="10.717" fill="#171717"/>
    <polygon points="39.133 14.104 42.064 14.104 42.064 12.363 39.133 12.363 39.133 9.432 42.479 9.432 42.522 9.387 42.522 7.691 36.751 7.691 36.751 18.409 39.133 18.409 39.133 14.104" fill="#171717"/>
  </g>
</svg>
